<?xml version="1.0" encoding="UTF-8" standalone="no"?>
<!DOCTYPE svg PUBLIC "-//W3C//DTD SVG 1.1//EN" "http://www.w3.org/Graphics/SVG/1.1/DTD/svg11.dtd">
<svg width="100%" height="100%" viewBox="0 0 2101 3601" version="1.1" xmlns="http://www.w3.org/2000/svg" xmlns:xlink="http://www.w3.org/1999/xlink" xml:space="preserve" xmlns:serif="http://www.serif.com/" style="fill-rule:evenodd;clip-rule:evenodd;stroke-linejoin:round;stroke-miterlimit:2;">
    <g>
        <path d="M298.737,3532.14L70.034,3532.14L70.034,3007.1L298.737,3007.1C964.832,3007.1 1505.62,2466.3 1505.62,1800.21C1505.62,1134.1 964.832,593.324 298.737,593.324L70.034,593.324L70.034,68.278L298.737,68.278C1254.62,68.278 2030.67,844.338 2030.67,1800.21C2030.67,2756.08 1254.62,3532.14 298.737,3532.14Z" style="fill:rgb(104,104,104);"/>
        <path d="M208.271,3301.26L208.271,3237.98C210.179,3237.98 302.404,3237.98 304.313,3237.95C356.102,3237.76 407.263,3234.82 457.645,3229.27L464.552,3292.17C411.984,3297.97 358.588,3301.04 304.539,3301.23C302.656,3301.26 210.179,3301.26 208.271,3301.26ZM717.919,3241.84L700.238,3181.06C780.206,3157.82 857.312,3127.81 930.876,3091.71L958.754,3148.52C881.925,3186.23 801.429,3217.57 717.919,3241.84ZM1179.95,3015.18L1142.75,2963.97C1209.66,2915.35 1272.2,2861.1 1329.71,2801.93L1375.1,2846.03C1315.07,2907.79 1249.77,2964.41 1179.95,3015.18ZM1538.6,2646.11L1486.36,2610.39C1532.77,2542.53 1573.51,2470.49 1607.92,2394.96L1665.51,2421.19C1629.6,2500.03 1587.05,2575.26 1538.6,2646.11ZM1751.83,2177.71L1690.58,2161.82C1711.05,2082.95 1724.96,2001.43 1731.74,1917.91L1794.83,1923.02C1787.75,2010.25 1773.21,2095.35 1751.83,2177.71ZM1793.75,1664.83L1730.71,1670.46C1723.25,1587.01 1708.63,1505.64 1687.49,1426.9L1748.62,1410.49C1770.67,1492.71 1785.94,1577.68 1793.75,1664.83ZM1660.24,1167.78L1602.87,1194.5C1567.84,1119.27 1526.47,1047.55 1479.48,980.075L1531.42,943.916C1580.49,1014.36 1623.67,1089.23 1660.24,1167.78ZM1366.26,745.385L1321.25,789.869C1263.26,731.183 1200.24,677.448 1132.93,629.373L1169.73,577.87C1239.98,628.04 1305.73,684.114 1366.26,745.385ZM947.402,446.377L920,503.431C846.16,467.953 768.804,438.596 688.634,416.014L705.763,355.097C789.499,378.686 870.271,409.321 947.402,446.377ZM452.019,306.913L445.614,369.871C401.838,365.409 357.483,362.933 312.652,362.525C308.357,362.47 215.554,362.443 195.914,362.443L195.939,299.159C215.655,299.159 308.934,299.186 313.254,299.241C360.045,299.676 406.333,302.261 452.019,306.913Z" style="fill:white;"/>
    </g>
</svg>
