<?xml version="1.0" encoding="UTF-8" standalone="no"?>
<!DOCTYPE svg PUBLIC "-//W3C//DTD SVG 1.1//EN" "http://www.w3.org/Graphics/SVG/1.1/DTD/svg11.dtd">
<svg width="100%" height="100%" viewBox="0 0 3601 3601" version="1.1" xmlns="http://www.w3.org/2000/svg" xmlns:xlink="http://www.w3.org/1999/xlink" xml:space="preserve" xmlns:serif="http://www.serif.com/" style="fill-rule:evenodd;clip-rule:evenodd;stroke-linejoin:round;stroke-miterlimit:2;">
    <g transform="matrix(1,0,0,1,-12768,-10635)">
        <g transform="matrix(2.66467,0,0,2.66466,877.502,10397.8)">
            <path d="M4726.26,855.37L4495.18,855.37L4495.18,658.333L4729.95,658.333C4768.92,508.506 4888.36,390.994 5039.27,354.787L5039.27,121.938L5236.31,121.938L5236.31,354.787C5387.23,390.994 5506.66,508.506 5545.63,658.333L5780.4,658.333L5780.4,855.37L5549.32,855.37C5514.75,1012.51 5392.36,1136.87 5236.31,1174.31L5236.31,1407.16L5039.27,1407.16L5039.27,1174.31C4883.22,1136.87 4760.83,1012.51 4726.26,855.37ZM5137.79,540.223C5013.98,540.223 4913.47,640.741 4913.47,764.55C4913.47,888.359 5013.98,988.876 5137.79,988.876C5261.6,988.876 5362.12,888.359 5362.12,764.55C5362.12,640.741 5261.6,540.223 5137.79,540.223Z" style="fill:rgb(104,104,104);"/>
        </g>
        <g transform="matrix(2.66467,0,0,2.66466,877.502,10397.8)">
            <path d="M5427.67,589.492C5444.55,618.727 5456.5,649.461 5463.81,680.734L5440.68,686.133C5433.89,657.08 5422.78,628.527 5407.1,601.367C5401.65,591.924 5395.77,582.875 5389.52,574.231L5408.75,560.305C5415.48,569.603 5421.8,579.335 5427.67,589.492ZM5448.76,754.129L5472.51,753.952C5472.75,786.936 5468.12,819.695 5458.89,851.13L5436.1,844.443C5444.68,815.229 5448.98,784.784 5448.76,754.129ZM5409.74,907.669L5430.52,919.161C5414.8,947.594 5394.83,973.937 5370.9,997.135L5354.37,980.082C5376.6,958.539 5395.14,934.074 5409.74,907.669ZM5300.23,1022.03L5312.63,1042.28C5310.16,1043.79 5307.67,1045.27 5305.15,1046.73C5278.55,1062.08 5250.71,1073.37 5222.36,1080.78L5216.35,1057.8C5242.7,1050.91 5268.56,1040.43 5293.28,1026.16C5295.62,1024.81 5297.94,1023.43 5300.23,1022.03ZM5148.6,1067.65L5149.39,1091.39C5116.4,1092.49 5083.53,1088.7 5051.89,1080.3L5057.99,1057.34C5087.39,1065.15 5117.93,1068.68 5148.6,1067.65ZM4994.1,1032.62L4983.15,1053.69C4954.29,1038.7 4927.44,1019.42 4903.65,996.135L4920.26,979.162C4942.36,1000.79 4967.3,1018.7 4994.1,1032.62ZM4876.93,926.134L4856.99,939.047C4853.86,934.207 4850.83,929.262 4847.91,924.212C4834.08,900.243 4823.55,875.266 4816.18,849.811L4838.99,843.207C4845.84,866.859 4855.62,890.065 4868.48,912.337C4871.19,917.033 4874.01,921.633 4876.93,926.134ZM4827.37,775.731L4803.66,777.144C4801.69,744.162 4804.64,711.212 4812.22,679.388L4835.33,684.89C4828.28,714.462 4825.54,745.082 4827.37,775.731ZM4858.39,620.382L4837.04,609.984C4851.29,580.719 4869.87,553.371 4892.5,529.008L4909.9,545.171C4888.89,567.799 4871.63,593.2 4858.39,620.382ZM4961.78,500.471L4948.36,480.878C4955.48,476.002 4962.83,471.362 4970.43,466.976C4991.78,454.65 5013.93,444.948 5036.5,437.767L5043.7,460.399C5022.73,467.072 5002.15,476.09 4982.31,487.544C4975.24,491.622 4968.4,495.937 4961.78,500.471ZM5110.85,447.014L5108.82,423.351C5141.77,420.521 5174.78,422.627 5206.77,429.377L5201.86,452.615C5172.14,446.343 5141.47,444.385 5110.85,447.014ZM5266.95,474.007L5276.79,452.392C5306.44,465.892 5334.26,483.766 5359.18,505.723L5343.48,523.543C5320.33,503.147 5294.49,486.547 5266.95,474.007ZM5125.92,162.069L5149.67,162.069L5149.67,257.069L5125.92,257.069L5125.92,162.069ZM5125.92,1257.05L5149.67,1257.05L5149.67,1352.05L5125.92,1352.05L5125.92,1257.05ZM5732.78,745.185L5732.78,768.935L5637.78,768.935L5637.78,745.185L5732.78,745.185ZM4637.8,745.185L4637.8,768.935L4542.8,768.935L4542.8,745.185L4637.8,745.185Z" style="fill:white;"/>
        </g>
    </g>
</svg>
