<?xml version="1.0" encoding="UTF-8" standalone="no"?>
<!DOCTYPE svg PUBLIC "-//W3C//DTD SVG 1.1//EN" "http://www.w3.org/Graphics/SVG/1.1/DTD/svg11.dtd">
<svg width="100%" height="100%" viewBox="0 0 2101 2251" version="1.1" xmlns="http://www.w3.org/2000/svg" xmlns:xlink="http://www.w3.org/1999/xlink" xml:space="preserve" xmlns:serif="http://www.serif.com/" style="fill-rule:evenodd;clip-rule:evenodd;stroke-linejoin:round;stroke-miterlimit:2;">
    <g transform="matrix(1,0,0,1,-2427,-8002)">
        <g transform="matrix(2.66466,0,0,2.66467,-8289.15,1347.16)">
            <path d="M4430.02,3128.51C4393.37,3067.55 4372.28,2996.19 4372.28,2919.94C4372.28,2804.83 4278.83,2711.37 4163.71,2711.37L4036.05,2711.37L4036.05,2514.34L4163.71,2514.34C4387.57,2514.34 4569.32,2696.08 4569.32,2919.94C4569.32,3035.06 4662.78,3128.51 4777.89,3128.51L4795.53,3128.51L4795.53,3325.55L4036.05,3325.55L4036.05,3128.51L4430.02,3128.51Z" style="fill:rgb(104,104,104);"/>
        </g>
        <g transform="matrix(2.66466,0,0,2.66467,-8289.15,1347.16)">
            <path d="M4498.88,3016.57L4476.44,3024.35C4465.89,2993.92 4459.82,2961.42 4459.02,2927.62L4482.76,2927.05C4483.5,2958.33 4489.12,2988.41 4498.88,3016.57ZM4469.85,2830.17L4447.06,2836.85C4438.37,2807.24 4425.17,2779.56 4408.25,2754.6L4427.91,2741.27C4446.2,2768.25 4460.46,2798.17 4469.85,2830.17ZM4360.97,2669.34L4346.26,2687.99C4322.52,2669.27 4295.83,2654.12 4267.02,2643.34L4275.34,2621.09C4306.47,2632.74 4335.31,2649.11 4360.97,2669.34ZM4179.05,2601.34L4177.93,2625.07C4176.99,2625.02 4176.06,2624.98 4175.13,2624.95C4172.94,2624.86 4125.55,2623.95 4083.29,2623.15L4083.74,2599.4C4126.21,2600.2 4173.83,2601.13 4176.03,2601.21C4177.04,2601.25 4178.05,2601.3 4179.05,2601.34ZM4748.29,3215.16L4748.29,3238.91L4653.29,3238.91L4653.29,3215.16L4748.29,3215.16ZM4558.29,3215.16L4558.29,3238.91L4463.29,3238.91L4463.29,3215.16L4558.29,3215.16ZM4368.29,3215.16L4368.29,3238.91L4273.29,3238.91L4273.29,3215.16L4368.29,3215.16ZM4178.29,3215.16L4178.29,3238.91L4083.29,3238.91L4083.29,3215.16L4178.29,3215.16Z" style="fill:white;"/>
        </g>
    </g>
</svg>
