<?xml version="1.0" encoding="UTF-8" standalone="no"?>
<!DOCTYPE svg PUBLIC "-//W3C//DTD SVG 1.1//EN" "http://www.w3.org/Graphics/SVG/1.1/DTD/svg11.dtd">
<svg width="100%" height="100%" viewBox="0 0 2551 601" version="1.1" xmlns="http://www.w3.org/2000/svg" xmlns:xlink="http://www.w3.org/1999/xlink" xml:space="preserve" xmlns:serif="http://www.serif.com/" style="fill-rule:evenodd;clip-rule:evenodd;stroke-linejoin:round;stroke-miterlimit:2;">
    <g>
        <rect x="35.642" y="38.387" width="2480.15" height="525.04" style="fill:rgb(104,104,104);"/>
        <path d="M161.529,157.825L161.529,80.107L492.01,80.107L492.01,157.825L161.529,157.825ZM161.529,279.121L161.529,201.4L492.01,201.4L492.01,279.121L161.529,279.121ZM161.529,400.417L161.529,322.696L492.01,322.696L492.01,400.417L161.529,400.417ZM161.529,521.71L161.529,443.992L492.01,443.992L492.01,521.71L161.529,521.71ZM617.895,332.553L617.895,269.267L871.039,269.267L871.039,332.553L617.895,332.553ZM1124.18,332.553L1124.18,269.267L1377.33,269.267L1377.33,332.553L1124.18,332.553ZM1630.47,332.553L1630.47,269.267L1883.61,269.267L1883.61,332.553L1630.47,332.553ZM2136.76,332.553L2136.76,269.267L2389.9,269.267L2389.9,332.553L2136.76,332.553Z" style="fill:white;"/>
    </g>
</svg>
