<?xml version="1.0" encoding="UTF-8" standalone="no"?>
<!DOCTYPE svg PUBLIC "-//W3C//DTD SVG 1.1//EN" "http://www.w3.org/Graphics/SVG/1.1/DTD/svg11.dtd">
<svg width="100%" height="100%" viewBox="0 0 3301 601" version="1.1" xmlns="http://www.w3.org/2000/svg" xmlns:xlink="http://www.w3.org/1999/xlink" xml:space="preserve" xmlns:serif="http://www.serif.com/" style="fill-rule:evenodd;clip-rule:evenodd;stroke-linejoin:round;stroke-miterlimit:2;">
    <g>
        <rect x="140.231" y="38.323" width="3020.06" height="525.163" style="fill:rgb(104,104,104);"/>
        <path d="M266.118,332.361L266.118,269.446L517.781,269.446L517.781,332.361L266.118,332.361ZM769.446,332.361L769.446,269.446L1021.11,269.446L1021.11,332.361L769.446,332.361ZM1272.77,332.361L1272.77,269.446L1524.44,269.446L1524.44,332.361L1272.77,332.361ZM1776.1,332.361L1776.1,269.446L2027.77,269.446L2027.77,332.361L1776.1,332.361ZM2279.42,332.361L2279.42,269.446L2531.09,269.446L2531.09,332.361L2279.42,332.361ZM2782.74,332.361L2782.74,269.446L3034.41,269.446L3034.41,332.361L2782.74,332.361Z" style="fill:white;"/>
    </g>
</svg>
