<?xml version="1.0" encoding="UTF-8" standalone="no"?>
<!DOCTYPE svg PUBLIC "-//W3C//DTD SVG 1.1//EN" "http://www.w3.org/Graphics/SVG/1.1/DTD/svg11.dtd">
<svg width="100%" height="100%" viewBox="0 0 3601 1951" version="1.1" xmlns="http://www.w3.org/2000/svg" xmlns:xlink="http://www.w3.org/1999/xlink" xml:space="preserve" xmlns:serif="http://www.serif.com/" style="fill-rule:evenodd;clip-rule:evenodd;stroke-linejoin:round;stroke-miterlimit:2;">
    <g transform="matrix(1,0,0,1,-8225,-7875)">
        <g transform="matrix(2.66467,0,0,2.66467,-158.108,-3192.06)">
            <path d="M3386.13,4373.35L3156.85,4373.35L3156.85,4176.31L4486.34,4176.31L4486.34,4373.35L3852.11,4373.35C3965.95,4490.44 4036.08,4650.23 4036.08,4826.27L4036.08,4862.52L3839.05,4862.52L3839.05,4826.27C3839.05,4576.3 3636.1,4373.35 3386.13,4373.35Z" style="fill:rgb(104,104,104);"/>
        </g>
        <g transform="matrix(2.66467,0,0,2.66467,-158.108,-3192.06)">
            <path d="M3729.12,4409.87L3744.24,4391.55C3769.2,4412.15 3792.37,4434.85 3813.45,4459.38L3795.44,4474.86C3775.24,4451.36 3753.04,4429.61 3729.12,4409.87ZM3849.71,4550.2L3870.11,4538.02C3886.6,4565.65 3900.81,4594.8 3912.44,4625.22L3890.26,4633.71C3879.12,4604.58 3865.51,4576.66 3849.71,4550.2ZM3915.79,4722.95L3939.11,4718.42C3945.18,4749.7 3948.67,4781.91 3949.33,4814.8L3925.58,4815.28C3924.95,4783.77 3921.61,4752.92 3915.79,4722.95ZM3204.1,4286.7L3204.1,4262.95L3299.1,4262.95L3299.1,4286.7L3204.1,4286.7ZM3394.1,4286.7L3394.1,4262.95L3489.1,4262.95L3489.1,4286.7L3394.1,4286.7ZM3584.1,4286.7L3584.1,4262.95L3679.1,4262.95L3679.1,4286.7L3584.1,4286.7ZM3774.1,4286.7L3774.1,4262.95L3869.1,4262.95L3869.1,4286.7L3774.1,4286.7ZM3964.1,4286.7L3964.1,4262.95L4059.1,4262.95L4059.1,4286.7L3964.1,4286.7ZM4154.1,4286.7L4154.1,4262.95L4249.1,4262.95L4249.1,4286.7L4154.1,4286.7ZM4344.1,4286.7L4344.1,4262.95L4439.1,4262.95L4439.1,4286.7L4344.1,4286.7Z" style="fill:white;"/>
        </g>
    </g>
</svg>
