<?xml version="1.0" encoding="UTF-8" standalone="no"?>
<!DOCTYPE svg PUBLIC "-//W3C//DTD SVG 1.1//EN" "http://www.w3.org/Graphics/SVG/1.1/DTD/svg11.dtd">
<svg width="100%" height="100%" viewBox="0 0 4201 1201" version="1.1" xmlns="http://www.w3.org/2000/svg" xmlns:xlink="http://www.w3.org/1999/xlink" xml:space="preserve" xmlns:serif="http://www.serif.com/" style="fill-rule:evenodd;clip-rule:evenodd;stroke-linejoin:round;stroke-miterlimit:2;">
    <g transform="matrix(1,0,0,1,-12244,-4798)">
        <g transform="matrix(2.66467,0,0,2.66466,8159.24,3340.5)">
            <rect x="1561.36" y="575.175" width="1519.49" height="394.074" style="fill:rgb(104,104,104);"/>
        </g>
        <g transform="matrix(2.66467,0,0,2.66466,8159.24,3340.5)">
            <path d="M1608.6,627.564L1608.6,598.397L1732.63,598.397L1732.63,627.564L1608.6,627.564ZM1608.6,809.468L1608.6,780.301L1732.63,780.301L1732.63,809.468L1608.6,809.468ZM1608.6,673.083L1608.6,643.917L1732.63,643.917L1732.63,673.083L1608.6,673.083ZM1608.6,854.988L1608.6,825.821L1732.63,825.821L1732.63,854.988L1608.6,854.988ZM1608.6,718.603L1608.6,689.436L1732.63,689.436L1732.63,718.603L1608.6,718.603ZM1608.6,900.507L1608.6,871.341L1732.63,871.341L1732.63,900.507L1608.6,900.507ZM1608.6,764.123L1608.6,734.956L1732.63,734.956L1732.63,764.123L1608.6,764.123ZM1608.6,946.027L1608.6,916.86L1732.63,916.86L1732.63,946.027L1608.6,946.027ZM1798.6,685.568L1798.6,661.818L1893.6,661.818L1893.6,685.568L1798.6,685.568ZM1988.6,685.568L1988.6,661.818L2083.6,661.818L2083.6,685.568L1988.6,685.568ZM2178.6,685.568L2178.6,661.818L2273.6,661.818L2273.6,685.568L2178.6,685.568ZM2368.6,685.568L2368.6,661.818L2463.6,661.818L2463.6,685.568L2368.6,685.568ZM2558.6,685.568L2558.6,661.818L2653.6,661.818L2653.6,685.568L2558.6,685.568ZM2748.6,685.568L2748.6,661.818L2843.6,661.818L2843.6,685.568L2748.6,685.568ZM2938.6,685.568L2938.6,661.818L3033.6,661.818L3033.6,685.568L2938.6,685.568ZM1798.6,882.605L1798.6,858.855L1893.6,858.855L1893.6,882.605L1798.6,882.605ZM1988.6,882.605L1988.6,858.855L2083.6,858.855L2083.6,882.605L1988.6,882.605ZM2178.6,882.605L2178.6,858.855L2273.6,858.855L2273.6,882.605L2178.6,882.605ZM2368.6,882.605L2368.6,858.855L2463.6,858.855L2463.6,882.605L2368.6,882.605ZM2558.6,882.605L2558.6,858.855L2653.6,858.855L2653.6,882.605L2558.6,882.605ZM2748.6,882.605L2748.6,858.855L2843.6,858.855L2843.6,882.605L2748.6,882.605ZM2938.6,882.605L2938.6,858.855L3033.6,858.855L3033.6,882.605L2938.6,882.605Z" style="fill:white;"/>
        </g>
    </g>
</svg>
