<?xml version="1.0" encoding="UTF-8" standalone="no"?>
<!DOCTYPE svg PUBLIC "-//W3C//DTD SVG 1.1//EN" "http://www.w3.org/Graphics/SVG/1.1/DTD/svg11.dtd">
<svg width="100%" height="100%" viewBox="0 0 3001 2101" version="1.1" xmlns="http://www.w3.org/2000/svg" xmlns:xlink="http://www.w3.org/1999/xlink" xml:space="preserve" xmlns:serif="http://www.serif.com/" style="fill-rule:evenodd;clip-rule:evenodd;stroke-linejoin:round;stroke-miterlimit:2;">
    <g transform="matrix(1,0,0,1,-4861,-8002)">
        <g transform="matrix(0.498844,0,0,1.51513,5821.64,7785.76)">
            <path d="M-1690.84,274.972L-1690.84,175.191L-638.335,175.191L-638.335,274.972C-638.335,477.422 -139.119,641.785 475.775,641.785L1689.17,641.785C2884.95,641.785 3855.78,961.424 3855.78,1355.13L3855.78,1497.36L2803.28,1497.36L2803.28,1355.13C2803.28,1152.68 2304.06,988.316 1689.17,988.316L475.775,988.316C-720.014,988.316 -1690.84,668.677 -1690.84,274.972Z" style="fill:rgb(104,104,104);"/>
        </g>
        <g transform="matrix(0.498844,0,0,1.51513,5821.64,7785.76)">
            <path d="M-1228.02,258.277L-1101.16,258.277C-1101.16,259.252 -1101.15,276.826 -1101.13,277.8C-1100.35,326.285 -1079.34,373.207 -1040.74,417.696L-1162.72,429.17C-1204.43,381.103 -1227.15,330.408 -1228,278.023C-1228.01,277.038 -1228.02,259.263 -1228.02,258.277ZM-941.986,586.018L-836.492,562.817C-745.901,607.469 -634.857,647.247 -507.785,680.696L-587.007,713.32C-724.235,677.198 -844.154,634.239 -941.986,586.018ZM-131.407,799.206L-86.138,760.187C62.779,778.915 222.502,790.417 389.067,793.393L382.192,835.101C202.169,831.885 29.542,819.448 -131.407,799.206ZM893.045,835.935L893.045,794.166L1400.5,794.166L1400.5,835.935L893.045,835.935ZM1898.96,840.496L1915.7,799.092C2093.63,806.892 2262.92,823.745 2419.16,848.196L2364.69,885.92C2220.16,863.301 2063.56,847.711 1898.96,840.496ZM2766.21,976.043L2852.9,945.547C2980.9,984.989 3090.42,1030.85 3176.7,1081.57L3066.02,1101.98C2986.13,1055.03 2884.72,1012.56 2766.21,976.043ZM3234.9,1251.93L3359.26,1243.66C3378.56,1275.13 3389.85,1307.54 3392.41,1340.67C3392.63,1343.63 3392.81,1383.92 3392.89,1414.15L3266.03,1414.19C3265.94,1384.38 3265.81,1344.65 3265.58,1341.73C3263.22,1311.07 3252.77,1281.06 3234.9,1251.93Z" style="fill:white;"/>
        </g>
    </g>
</svg>
