<?xml version="1.0" encoding="UTF-8" standalone="no"?>
<!DOCTYPE svg PUBLIC "-//W3C//DTD SVG 1.1//EN" "http://www.w3.org/Graphics/SVG/1.1/DTD/svg11.dtd">
<svg width="100%" height="100%" viewBox="0 0 2701 2701" version="1.1" xmlns="http://www.w3.org/2000/svg" xmlns:xlink="http://www.w3.org/1999/xlink" xml:space="preserve" xmlns:serif="http://www.serif.com/" style="fill-rule:evenodd;clip-rule:evenodd;stroke-linejoin:round;stroke-miterlimit:2;">
    <g transform="matrix(1,0,0,1,-105,-4798)">
        <g transform="matrix(2.66468,0,0,2.66466,-15631.8,844.57)">
            <path d="M6314.09,2088.87L5937.87,2088.87L5937.87,1891.83L6314.09,1891.83L6314.09,1515.61L6511.13,1515.61L6511.13,1891.83L6887.35,1891.83L6887.35,2088.87L6511.13,2088.87L6511.13,2465.09L6314.09,2465.09L6314.09,2088.87Z" style="fill:rgb(104,104,104);"/>
        </g>
        <g transform="matrix(2.66468,0,0,2.66466,-15631.8,844.57)">
            <path d="M5985.11,2002.22L5985.11,1978.47L6080.11,1978.47L6080.11,2002.22L5985.11,2002.22ZM6175.11,2002.22L6175.11,1978.47L6270.11,1978.47L6270.11,2002.22L6175.11,2002.22ZM6365.11,2002.22L6365.11,1978.47L6460.11,1978.47L6460.11,2002.22L6365.11,2002.22ZM6555.11,2002.22L6555.11,1978.47L6650.11,1978.47L6650.11,2002.22L6555.11,2002.22ZM6745.11,2002.22L6745.11,1978.47L6840.11,1978.47L6840.11,2002.22L6745.11,2002.22ZM6400.73,1562.85L6424.48,1562.85L6424.48,1657.85L6400.73,1657.85L6400.73,1562.85ZM6400.73,1752.85L6424.48,1752.85L6424.48,1847.85L6400.73,1847.85L6400.73,1752.85ZM6400.73,2132.85L6424.48,2132.85L6424.48,2227.85L6400.73,2227.85L6400.73,2132.85ZM6400.73,2322.85L6424.48,2322.85L6424.48,2417.85L6400.73,2417.85L6400.73,2322.85Z" style="fill:white;"/>
        </g>
    </g>
</svg>
