<?xml version="1.0" encoding="UTF-8" standalone="no"?>
<!DOCTYPE svg PUBLIC "-//W3C//DTD SVG 1.1//EN" "http://www.w3.org/Graphics/SVG/1.1/DTD/svg11.dtd">
<svg width="100%" height="100%" viewBox="0 0 1501 1501" version="1.1" xmlns="http://www.w3.org/2000/svg" xmlns:xlink="http://www.w3.org/1999/xlink" xml:space="preserve" xmlns:serif="http://www.serif.com/" style="fill-rule:evenodd;clip-rule:evenodd;stroke-linejoin:round;stroke-miterlimit:2;">
    <g transform="matrix(1,0,0,1,-5911,-4883)">
        <g transform="matrix(9.27749e-17,0.837532,-1.51513,5.12839e-17,7460.29,4658.27)">
            <path d="M325.469,988.316L325.469,641.785L1375.72,641.785L1375.72,66.083L2002.61,66.083L2002.61,988.316L325.469,988.316Z" style="fill:rgb(104,104,104);"/>
        </g>
        <g transform="matrix(9.27749e-17,0.837532,-1.51513,5.12839e-17,7460.29,4658.27)">
            <path d="M475.775,835.935L475.775,794.166L778.025,794.166L778.025,835.935L475.775,835.935ZM1004.71,835.935L1004.71,794.166L1306.96,794.166L1306.96,835.935L1004.71,835.935ZM1533.65,835.935L1533.65,794.166L1651.38,794.166L1651.38,733.94L1726.95,733.94L1726.95,815.051C1726.95,826.585 1710.03,835.935 1689.17,835.935L1533.65,835.935ZM1726.95,608.632L1651.38,608.632L1651.38,441.554L1726.95,441.554L1726.95,608.632ZM1726.95,316.246L1651.38,316.246L1651.38,149.169L1726.95,149.169L1726.95,316.246Z" style="fill:white;"/>
        </g>
    </g>
</svg>
