<?xml version="1.0" encoding="UTF-8" standalone="no"?>
<!DOCTYPE svg PUBLIC "-//W3C//DTD SVG 1.1//EN" "http://www.w3.org/Graphics/SVG/1.1/DTD/svg11.dtd">
<svg width="100%" height="100%" viewBox="0 0 4201 1201" version="1.1" xmlns="http://www.w3.org/2000/svg" xmlns:xlink="http://www.w3.org/1999/xlink" xml:space="preserve" xmlns:serif="http://www.serif.com/" style="fill-rule:evenodd;clip-rule:evenodd;stroke-linejoin:round;stroke-miterlimit:2;">
    <g transform="matrix(1,0,0,1,-7745,-4798)">
        <g transform="matrix(2.66467,0,0,2.66466,3660.13,4616.69)">
            <rect x="1561.36" y="96.243" width="1519.49" height="394.074" style="fill:rgb(104,104,104);"/>
        </g>
        <g transform="matrix(2.66467,0,0,2.66466,3660.13,4616.69)">
            <path d="M1608.6,206.636L1608.6,182.886L1703.6,182.886L1703.6,206.636L1608.6,206.636ZM1798.6,206.636L1798.6,182.886L1893.6,182.886L1893.6,206.636L1798.6,206.636ZM1988.6,206.636L1988.6,182.886L2083.6,182.886L2083.6,206.636L1988.6,206.636ZM2178.6,206.636L2178.6,182.886L2273.6,182.886L2273.6,206.636L2178.6,206.636ZM2368.6,206.636L2368.6,182.886L2463.6,182.886L2463.6,206.636L2368.6,206.636ZM2558.6,206.636L2558.6,182.886L2653.6,182.886L2653.6,206.636L2558.6,206.636ZM2748.6,206.636L2748.6,182.886L2843.6,182.886L2843.6,206.636L2748.6,206.636ZM2938.6,206.636L2938.6,182.886L3033.6,182.886L3033.6,206.636L2938.6,206.636ZM1608.6,403.673L1608.6,379.923L1703.6,379.923L1703.6,403.673L1608.6,403.673ZM1798.6,403.673L1798.6,379.923L1893.6,379.923L1893.6,403.673L1798.6,403.673ZM1988.6,403.673L1988.6,379.923L2083.6,379.923L2083.6,403.673L1988.6,403.673ZM2178.6,403.673L2178.6,379.923L2273.6,379.923L2273.6,403.673L2178.6,403.673ZM2368.6,403.673L2368.6,379.923L2463.6,379.923L2463.6,403.673L2368.6,403.673ZM2558.6,403.673L2558.6,379.923L2653.6,379.923L2653.6,403.673L2558.6,403.673ZM2748.6,403.673L2748.6,379.923L2843.6,379.923L2843.6,403.673L2748.6,403.673ZM2938.6,403.673L2938.6,379.923L3033.6,379.923L3033.6,403.673L2938.6,403.673Z" style="fill:white;"/>
        </g>
    </g>
</svg>
