<?xml version="1.0" encoding="UTF-8" standalone="no"?>
<!DOCTYPE svg PUBLIC "-//W3C//DTD SVG 1.1//EN" "http://www.w3.org/Graphics/SVG/1.1/DTD/svg11.dtd">
<svg width="100%" height="100%" viewBox="0 0 2550 2551" version="1.1" xmlns="http://www.w3.org/2000/svg" xmlns:xlink="http://www.w3.org/1999/xlink" xml:space="preserve" xmlns:serif="http://www.serif.com/" style="fill-rule:evenodd;clip-rule:evenodd;stroke-linejoin:round;stroke-miterlimit:2;">
    <g transform="matrix(1,0,0,1,-7148,-10635)">
        <g transform="matrix(1.51513,0,0,1.51513,1735.4,6355.71)">
            <path d="M4413.93,2924.9C4822.93,2924.9 5154.98,3256.95 5154.98,3665.95C5154.98,4074.95 4822.93,4407.01 4413.93,4407.01C4004.93,4407.01 3672.87,4074.95 3672.87,3665.95C3672.87,3256.95 4004.93,2924.9 4413.93,2924.9ZM4413.93,3271.43C4196.18,3271.43 4019.4,3448.21 4019.4,3665.95C4019.4,3883.7 4196.18,4060.48 4413.93,4060.48C4631.67,4060.48 4808.45,3883.7 4808.45,3665.95C4808.45,3448.21 4631.67,3271.43 4413.93,3271.43Z" style="fill:rgb(104,104,104);"/>
        </g>
        <g transform="matrix(0,1.51513,-1.51513,-5.45604e-06,13977.5,5222.45)">
            <path d="M4413.93,3077.28C4473.3,3077.28 4530.62,3086.09 4584.67,3102.47L4572.56,3142.44C4522.34,3127.23 4469.08,3119.05 4413.93,3119.05C4394.75,3119.05 4375.8,3120.04 4357.13,3121.97L4352.84,3080.42C4372.92,3078.34 4393.3,3077.28 4413.93,3077.28ZM4683.23,3189.93L4703.84,3153.6C4754.3,3182.23 4800.12,3218.1 4839.88,3259.79L4809.66,3288.62C4772.7,3249.87 4730.12,3216.54 4683.23,3189.93ZM4882.77,3384.38L4918.55,3362.83C4948.03,3411.77 4970.6,3465.35 4984.89,3522.2L4944.38,3532.38C4931.11,3479.59 4910.15,3429.83 4882.77,3384.38ZM4960.65,3651.73L5002.4,3650.66C5002.53,3655.74 5002.6,3660.84 5002.6,3665.95C5002.6,3719.97 4995.31,3772.29 4981.66,3821.99L4941.38,3810.93C4954.06,3764.75 4960.83,3716.14 4960.83,3665.95C4960.83,3661.2 4960.77,3656.45 4960.65,3651.73ZM4896.8,3922.8L4933.65,3942.46C4906.32,3993.69 4871.65,4040.41 4831.02,4081.21L4801.42,4051.74C4839.17,4013.82 4871.4,3970.4 4896.8,3922.8ZM4707.59,4127.3L4730.06,4162.51C4681.85,4193.28 4628.86,4217.23 4572.48,4232.99L4561.24,4192.76C4613.61,4178.13 4662.81,4155.88 4707.59,4127.3ZM4442.36,4212.13L4444.5,4253.85C4434.38,4254.36 4424.18,4254.63 4413.93,4254.63C4365.25,4254.63 4317.95,4248.7 4272.7,4237.54L4282.7,4196.99C4324.74,4207.36 4368.7,4212.86 4413.93,4212.86C4423.46,4212.86 4432.94,4212.61 4442.36,4212.13ZM4169.71,4155.36L4151.01,4192.71C4099.05,4166.7 4051.46,4133.23 4009.65,4093.7L4038.35,4063.35C4077.2,4100.08 4121.42,4131.19 4169.71,4155.36ZM3960.38,3971.5L3925.77,3994.88C3893.72,3947.44 3868.41,3895.08 3851.2,3839.19L3891.12,3826.9C3907.11,3878.81 3930.62,3927.43 3960.38,3971.5ZM3868.66,3708.58L3827.01,3711.8C3825.85,3696.67 3825.25,3681.38 3825.25,3665.95C3825.25,3622.6 3829.95,3580.33 3838.87,3539.63L3879.67,3548.57C3871.38,3586.39 3867.02,3625.66 3867.02,3665.95C3867.02,3680.3 3867.57,3694.51 3868.66,3708.58ZM3918.33,3434.53L3880.5,3416.82C3905.16,3364.14 3937.4,3315.71 3975.81,3272.93L4006.89,3300.83C3971.2,3340.59 3941.24,3385.59 3918.33,3434.53ZM4096.7,3220.52L4072.43,3186.52C4119.07,3153.23 4170.76,3126.57 4226.12,3107.93L4239.45,3147.51C4188.03,3164.83 4140.02,3189.6 4096.7,3220.52Z" style="fill:white;"/>
        </g>
    </g>
</svg>
