<?xml version="1.0" encoding="UTF-8" standalone="no"?>
<!DOCTYPE svg PUBLIC "-//W3C//DTD SVG 1.1//EN" "http://www.w3.org/Graphics/SVG/1.1/DTD/svg11.dtd">
<svg width="100%" height="100%" viewBox="0 0 1351 2250" version="1.1" xmlns="http://www.w3.org/2000/svg" xmlns:xlink="http://www.w3.org/1999/xlink" xml:space="preserve" xmlns:serif="http://www.serif.com/" style="fill-rule:evenodd;clip-rule:evenodd;stroke-linejoin:round;stroke-miterlimit:2;">
    <g>
        <path d="M197.828,2205.8L71.943,2205.8L71.943,1680.76L197.828,1680.76C504.569,1680.76 753.578,1431.74 753.578,1125C753.578,818.263 504.569,569.237 197.828,569.237L71.943,569.237L71.943,44.185L197.828,44.185C794.336,44.185 1278.64,528.48 1278.64,1125C1278.64,1721.51 794.336,2205.8 197.828,2205.8Z" style="fill:rgb(104,104,104);"/>
        <path d="M197.828,1974.93L197.828,1911.64C281.311,1911.64 361.799,1898.61 437.324,1874.46L456.617,1934.75C374.984,1960.84 288.036,1974.93 197.828,1974.93ZM663.606,1835.88L628.868,1782.99C696.876,1738.31 757.572,1683.37 808.725,1620.4L857.851,1660.3C802.587,1728.31 737.046,1787.64 663.606,1835.88ZM977.159,1464.42L919.164,1439.1C951.054,1366.06 972.167,1287.24 980.477,1204.67L1043.43,1211.01C1034.45,1300.26 1011.63,1385.45 977.159,1464.42ZM1035.71,981.821L973.312,992.427C959.481,910.928 933.053,833.672 896.142,762.749L952.287,733.538C992.193,810.218 1020.74,893.717 1035.71,981.821ZM820.001,546.192L773.664,589.313C718.517,530.041 654.297,479.284 583.265,439.239L614.362,384.104C691.062,427.361 760.42,482.178 820.001,546.192ZM401.088,299.575L385.966,361.029C325.681,346.211 262.665,338.362 197.828,338.362L197.828,275.075C267.862,275.075 335.958,283.56 401.088,299.575Z" style="fill:white;"/>
    </g>
</svg>
