<?xml version="1.0" encoding="UTF-8" standalone="no"?>
<!DOCTYPE svg PUBLIC "-//W3C//DTD SVG 1.1//EN" "http://www.w3.org/Graphics/SVG/1.1/DTD/svg11.dtd">
<svg width="100%" height="100%" viewBox="0 0 1651 1801" version="1.1" xmlns="http://www.w3.org/2000/svg" xmlns:xlink="http://www.w3.org/1999/xlink" xml:space="preserve" xmlns:serif="http://www.serif.com/" style="fill-rule:evenodd;clip-rule:evenodd;stroke-linejoin:round;stroke-miterlimit:2;">
    <g transform="matrix(1,0,0,1,-91,-8002)">
        <g transform="matrix(2.66467,0,0,2.66467,-14305.4,1022.9)">
            <path d="M5427.61,3020.39L5427.61,2626.31L5997.1,2626.31L5997.1,2823.35L5479.62,2823.35C5703.48,2823.35 5885.23,3005.09 5885.23,3228.95L5885.23,3288.07L5688.19,3288.07L5688.19,3228.95C5688.19,3113.84 5594.73,3020.39 5479.62,3020.39L5427.61,3020.39Z" style="fill:rgb(104,104,104);"/>
        </g>
        <g transform="matrix(2.66467,0,0,2.66467,-14305.4,1022.9)">
            <path d="M5798.58,3228.95L5798.58,3240.83L5774.83,3240.83L5774.83,3228.95C5774.83,3197.62 5769.94,3167.42 5760.88,3139.07L5757.26,3127.76L5779.89,3120.53L5783.5,3131.84C5793.29,3162.46 5798.58,3195.1 5798.58,3228.95ZM5739.43,3043.98L5746.33,3053.65L5727,3067.44L5720.1,3057.78C5702.38,3032.94 5680.92,3010.97 5656.53,2992.67L5647.03,2985.54L5661.29,2966.55L5670.79,2973.67C5697.12,2993.43 5720.3,3017.16 5739.43,3043.98ZM5584.02,2927.5L5595.24,2931.39L5587.46,2953.83L5576.24,2949.94C5548.09,2940.18 5518.01,2934.57 5486.73,2933.83L5474.86,2933.54L5475.42,2909.8L5487.29,2910.08C5521.09,2910.88 5553.6,2916.95 5584.02,2927.5ZM5474.86,2736.7L5474.86,2712.95L5569.86,2712.95L5569.86,2736.7L5474.86,2736.7ZM5664.86,2736.7L5664.86,2712.95L5759.86,2712.95L5759.86,2736.7L5664.86,2736.7ZM5854.86,2736.7L5854.86,2712.95L5949.86,2712.95L5949.86,2736.7L5854.86,2736.7Z" style="fill:white;"/>
        </g>
    </g>
</svg>
