<?xml version="1.0" encoding="UTF-8" standalone="no"?>
<!DOCTYPE svg PUBLIC "-//W3C//DTD SVG 1.1//EN" "http://www.w3.org/Graphics/SVG/1.1/DTD/svg11.dtd">
<svg width="100%" height="100%" viewBox="0 0 2401 3601" version="1.1" xmlns="http://www.w3.org/2000/svg" xmlns:xlink="http://www.w3.org/1999/xlink" xml:space="preserve" xmlns:serif="http://www.serif.com/" style="fill-rule:evenodd;clip-rule:evenodd;stroke-linejoin:round;stroke-miterlimit:2;">
    <g transform="matrix(1,0,0,1,-10005,-10663)">
        <g transform="matrix(2.66466,0,0,2.66466,999.205,10447)">
            <path d="M3731.79,1166.62C3546.69,1122.21 3408.95,955.488 3408.95,756.852C3408.95,558.215 3546.69,391.497 3731.79,347.089L3731.79,114.24L3928.83,114.24L3928.83,347.089C4113.93,391.497 4251.67,558.215 4251.67,756.852C4251.67,955.488 4113.93,1122.21 3928.83,1166.62L3928.83,1399.46L3731.79,1399.46L3731.79,1166.62ZM3830.31,532.526C3706.5,532.526 3605.99,633.043 3605.99,756.852C3605.99,880.661 3706.5,981.178 3830.31,981.178C3954.12,981.178 4054.64,880.661 4054.64,756.852C4054.64,633.043 3954.12,532.526 3830.31,532.526Z" style="fill:rgb(104,104,104);"/>
        </g>
        <g transform="matrix(2.66466,0,0,2.66466,999.205,10447)">
            <path d="M4120.19,589.492C4137.07,618.727 4149.02,649.461 4156.33,680.734L4133.2,686.133C4126.41,657.08 4115.3,628.527 4099.62,601.367C4094.17,591.924 4088.29,582.875 4082.04,574.231L4101.27,560.305C4108.01,569.603 4114.32,579.335 4120.19,589.492ZM4141.28,754.129L4165.03,753.952C4165.27,786.936 4160.64,819.695 4151.41,851.13L4128.62,844.443C4137.2,815.229 4141.51,784.784 4141.28,754.129ZM4102.26,907.669L4123.04,919.161C4107.32,947.594 4087.35,973.937 4063.42,997.135L4046.89,980.082C4069.12,958.539 4087.66,934.074 4102.26,907.669ZM3992.75,1022.03L4005.15,1042.28C4002.68,1043.79 4000.19,1045.27 3997.67,1046.73C3971.07,1062.08 3943.23,1073.37 3914.88,1080.78L3908.87,1057.8C3935.22,1050.91 3961.08,1040.43 3985.8,1026.16C3988.14,1024.81 3990.46,1023.43 3992.75,1022.03ZM3841.12,1067.65L3841.91,1091.39C3808.92,1092.49 3776.05,1088.7 3744.41,1080.3L3750.51,1057.34C3779.91,1065.15 3810.45,1068.68 3841.12,1067.65ZM3686.62,1032.62L3675.67,1053.69C3646.81,1038.7 3619.96,1019.42 3596.17,996.135L3612.78,979.162C3634.88,1000.79 3659.82,1018.7 3686.62,1032.62ZM3569.45,926.134L3549.51,939.047C3546.38,934.207 3543.35,929.262 3540.43,924.212C3526.6,900.243 3516.07,875.266 3508.7,849.811L3531.51,843.207C3538.36,866.859 3548.14,890.065 3561,912.337C3563.72,917.033 3566.53,921.633 3569.45,926.134ZM3519.89,775.731L3496.18,777.144C3494.21,744.162 3497.16,711.212 3504.74,679.388L3527.85,684.89C3520.8,714.462 3518.06,745.082 3519.89,775.731ZM3550.91,620.382L3529.56,609.984C3543.81,580.719 3562.39,553.371 3585.02,529.008L3602.42,545.171C3581.41,567.799 3564.15,593.2 3550.91,620.382ZM3654.3,500.471L3640.88,480.878C3647.99,476.002 3655.35,471.362 3662.95,466.976C3684.3,454.65 3706.45,444.948 3729.02,437.767L3736.22,460.399C3715.25,467.072 3694.66,476.09 3674.83,487.544C3667.76,491.622 3660.92,495.937 3654.3,500.471ZM3803.37,447.014L3801.34,423.351C3834.29,420.521 3867.3,422.627 3899.29,429.377L3894.38,452.615C3864.66,446.343 3833.99,444.385 3803.37,447.014ZM3959.47,474.007L3969.31,452.392C3998.96,465.892 4026.78,483.766 4051.7,505.723L4036,523.543C4012.85,503.147 3987.01,486.547 3959.47,474.007ZM3818.44,162.069L3842.19,162.069L3842.19,257.069L3818.44,257.069L3818.44,162.069ZM3818.44,1257.05L3842.19,1257.05L3842.19,1352.05L3818.44,1352.05L3818.44,1257.05Z" style="fill:white;"/>
        </g>
    </g>
</svg>
