<?xml version="1.0" encoding="UTF-8" standalone="no"?>
<!DOCTYPE svg PUBLIC "-//W3C//DTD SVG 1.1//EN" "http://www.w3.org/Graphics/SVG/1.1/DTD/svg11.dtd">
<svg width="100%" height="100%" viewBox="0 0 2701 2701" version="1.1" xmlns="http://www.w3.org/2000/svg" xmlns:xlink="http://www.w3.org/1999/xlink" xml:space="preserve" xmlns:serif="http://www.serif.com/" style="fill-rule:evenodd;clip-rule:evenodd;stroke-linejoin:round;stroke-miterlimit:2;">
    <g transform="matrix(1,0,0,1,-2975,-4798)">
        <g transform="matrix(2.66468,0,0,2.66466,-9712.33,812.924)">
            <path d="M5169.56,2100.74L4793.33,2100.74L4793.33,1903.7L5169.56,1903.7L5169.56,1527.48L5366.59,1527.48L5366.59,1903.7L5742.82,1903.7L5742.82,2100.74L5366.59,2100.74L5366.59,2476.97L5169.56,2476.97L5169.56,2100.74Z" style="fill:rgb(104,104,104);"/>
        </g>
        <g transform="matrix(2.66468,0,0,2.66466,-9712.33,812.924)">
            <path d="M5321.77,1749.83L5350.94,1749.83L5350.94,1873.86L5321.77,1873.86L5321.77,1749.83ZM5276.25,1749.83L5305.42,1749.83L5305.42,1873.86L5276.25,1873.86L5276.25,1749.83ZM5230.73,1749.83L5259.9,1749.83L5259.9,1873.86L5230.73,1873.86L5230.73,1749.83ZM5185.21,1749.83L5214.38,1749.83L5214.38,1873.86L5185.21,1873.86L5185.21,1749.83ZM5321.77,2130.59L5350.94,2130.59L5350.94,2254.61L5321.77,2254.61L5321.77,2130.59ZM5276.25,2130.59L5305.42,2130.59L5305.42,2254.61L5276.25,2254.61L5276.25,2130.59ZM5230.73,2130.59L5259.9,2130.59L5259.9,2254.61L5230.73,2254.61L5230.73,2130.59ZM5185.21,2130.59L5214.38,2130.59L5214.38,2254.61L5185.21,2254.61L5185.21,2130.59ZM4840.57,2014.1L4840.57,1990.35L4935.57,1990.35L4935.57,2014.1L4840.57,2014.1ZM5030.58,2014.1L5030.58,1990.35L5125.57,1990.35L5125.57,2014.1L5030.58,2014.1ZM5220.57,2014.1L5220.57,1990.35L5315.57,1990.35L5315.57,2014.1L5220.57,2014.1ZM5410.57,2014.1L5410.57,1990.35L5505.57,1990.35L5505.57,2014.1L5410.57,2014.1ZM5600.58,2014.1L5600.58,1990.35L5695.58,1990.35L5695.58,2014.1L5600.58,2014.1ZM5256.2,1574.72L5279.95,1574.72L5279.95,1669.72L5256.2,1669.72L5256.2,1574.72ZM5256.2,2334.72L5279.95,2334.72L5279.95,2429.72L5256.2,2429.72L5256.2,2334.72Z" style="fill:white;"/>
        </g>
    </g>
</svg>
