<?xml version="1.0" encoding="UTF-8" standalone="no"?>
<!DOCTYPE svg PUBLIC "-//W3C//DTD SVG 1.1//EN" "http://www.w3.org/Graphics/SVG/1.1/DTD/svg11.dtd">
<svg width="100%" height="100%" viewBox="0 0 1201 900" version="1.1" xmlns="http://www.w3.org/2000/svg" xmlns:xlink="http://www.w3.org/1999/xlink" xml:space="preserve" xmlns:serif="http://www.serif.com/" style="fill-rule:evenodd;clip-rule:evenodd;stroke-linejoin:round;stroke-miterlimit:2;">
    <g>
        <path d="M1023.45,358.752L1121.7,442.235L765.486,827.956L667.233,744.473C568.187,652.989 435.813,597.066 290.489,597.066L78.361,597.066L78.361,72.014L290.489,72.014C573.209,72.014 830.734,180.785 1023.45,358.752Z" style="fill:rgb(104,104,104);"/>
        <path d="M866.822,528.37L823.892,574.854C764.517,520.052 696.744,474.25 622.658,439.66L649.468,382.327C729.456,419.69 802.691,469.159 866.822,528.37ZM462.652,320.389L449.878,382.373C402.719,372.645 354.063,367.161 304.261,366.297C301.794,366.267 252.286,366.237 204.246,366.206L204.275,302.934C252.844,302.95 302.881,302.98 305.318,303.025C359.143,303.95 411.705,309.889 462.652,320.389Z" style="fill:white;"/>
    </g>
</svg>
