<?xml version="1.0" encoding="UTF-8" standalone="no"?>
<!DOCTYPE svg PUBLIC "-//W3C//DTD SVG 1.1//EN" "http://www.w3.org/Graphics/SVG/1.1/DTD/svg11.dtd">
<svg width="100%" height="100%" viewBox="0 0 1351 1350" version="1.1" xmlns="http://www.w3.org/2000/svg" xmlns:xlink="http://www.w3.org/1999/xlink" xml:space="preserve" xmlns:serif="http://www.serif.com/" style="fill-rule:evenodd;clip-rule:evenodd;stroke-linejoin:round;stroke-miterlimit:2;">
    <g>
        <path d="M1269.08,1152.46L1269.08,1278.35L744.012,1278.35L744.012,1152.46C744.012,845.72 495.002,596.694 188.262,596.694L81.816,596.694L81.816,71.642L188.262,71.642C784.77,71.642 1269.08,555.937 1269.08,1152.46Z" style="fill:rgb(104,104,104);"/>
        <path d="M1038.18,1152.46L974.904,1152.46C974.904,1068.96 961.866,988.475 937.729,912.946L998.014,893.673C1024.09,975.278 1038.18,1062.23 1038.18,1152.46ZM880.586,659.571L829.051,696.328C781.833,630.148 724.661,571.588 659.678,522.831L697.646,472.211C767.827,524.862 829.58,588.103 880.586,659.571ZM466.46,349.183L445.729,408.97C370.703,382.97 290.538,368.016 207.202,366.031L208.7,302.759C298.76,304.896 385.385,321.077 466.46,349.183Z" style="fill:white;"/>
    </g>
</svg>
