<?xml version="1.0" encoding="UTF-8" standalone="no"?>
<!DOCTYPE svg PUBLIC "-//W3C//DTD SVG 1.1//EN" "http://www.w3.org/Graphics/SVG/1.1/DTD/svg11.dtd">
<svg width="100%" height="100%" viewBox="0 0 3300 3601" version="1.1" xmlns="http://www.w3.org/2000/svg" xmlns:xlink="http://www.w3.org/1999/xlink" xml:space="preserve" xmlns:serif="http://www.serif.com/" style="fill-rule:evenodd;clip-rule:evenodd;stroke-linejoin:round;stroke-miterlimit:2;">
    <g transform="matrix(1,0,0,1,0,-10635)">
        <g transform="matrix(2.66467,0,0,2.66466,-3157.43,3774.93)">
            <path d="M1705.62,3280.52C1588.53,3394.35 1428.74,3464.49 1252.7,3464.49L1216.45,3464.49L1216.45,3267.45L1252.7,3267.45C1502.67,3267.45 1705.62,3064.51 1705.62,2814.53L1705.62,2585.26L1902.66,2585.26L1902.66,2814.53C1902.66,3064.51 2105.6,3267.45 2355.58,3267.45L2391.83,3267.45L2391.83,3464.49L2355.58,3464.49C2179.54,3464.49 2019.75,3394.35 1902.66,3280.52L1902.66,3914.75L1705.62,3914.75L1705.62,3280.52Z" style="fill:rgb(104,104,104);"/>
        </g>
        <g transform="matrix(2.66467,0,0,2.66466,-3157.43,3774.93)">
            <path d="M1920.86,3172.64L1939.18,3157.53C1958.91,3181.45 1980.66,3203.64 2004.17,3223.85L1988.69,3241.86C1964.16,3220.77 1941.45,3197.61 1920.86,3172.64ZM2067.33,3298.51L2079.51,3278.12C2105.97,3293.92 2133.89,3307.52 2163.01,3318.67L2154.53,3340.85C2124.11,3329.21 2094.96,3315.01 2067.33,3298.51ZM2247.73,3367.51L2252.26,3344.2C2282.22,3350.02 2313.08,3353.36 2344.59,3353.99L2344.11,3377.73C2311.22,3377.07 2279.01,3373.59 2247.73,3367.51ZM1669.1,3157.53L1687.42,3172.64C1666.82,3197.61 1644.12,3220.77 1619.58,3241.86L1604.1,3223.85C1627.61,3203.64 1649.36,3181.45 1669.1,3157.53ZM1528.77,3278.12L1540.94,3298.51C1513.32,3315.01 1484.16,3329.21 1453.75,3340.85L1445.26,3318.67C1474.39,3307.52 1502.31,3293.92 1528.77,3278.12ZM1356.02,3344.2L1360.55,3367.51C1329.26,3373.59 1297.06,3377.07 1264.17,3377.73L1263.69,3353.99C1295.2,3353.36 1326.05,3350.02 1356.02,3344.2ZM1792.26,2632.5L1816.01,2632.5L1816.01,2727.5L1792.26,2727.5L1792.26,2632.5ZM1792.26,2822.5L1816.01,2822.5L1816.01,2917.5L1792.26,2917.5L1792.26,2822.5ZM1792.26,3012.51L1816.01,3012.51L1816.01,3107.5L1792.26,3107.5L1792.26,3012.51ZM1792.26,3202.5L1816.01,3202.5L1816.01,3297.5L1792.26,3297.5L1792.26,3202.5ZM1792.26,3392.5L1816.01,3392.5L1816.01,3487.5L1792.26,3487.5L1792.26,3392.5ZM1792.26,3582.5L1816.01,3582.5L1816.01,3677.5L1792.26,3677.5L1792.26,3582.5ZM1792.26,3772.5L1816.01,3772.5L1816.01,3867.5L1792.26,3867.5L1792.26,3772.5Z" style="fill:white;"/>
        </g>
    </g>
</svg>
