<?xml version="1.0" encoding="UTF-8" standalone="no"?>
<!DOCTYPE svg PUBLIC "-//W3C//DTD SVG 1.1//EN" "http://www.w3.org/Graphics/SVG/1.1/DTD/svg11.dtd">
<svg width="100%" height="100%" viewBox="0 0 2701 1651" version="1.1" xmlns="http://www.w3.org/2000/svg" xmlns:xlink="http://www.w3.org/1999/xlink" xml:space="preserve" xmlns:serif="http://www.serif.com/" style="fill-rule:evenodd;clip-rule:evenodd;stroke-linejoin:round;stroke-miterlimit:2;">
    <g>
        <path d="M2615.78,1589.2L85.721,1589.2L85.721,1064.16L1088.23,1064.16L1088.23,61.657L1613.27,61.657L1613.27,1064.16L2615.78,1064.16L2615.78,1589.2Z" style="fill:rgb(104,104,104);"/>
        <path d="M1493.84,654.146L1571.55,654.146L1571.55,984.618L1493.84,984.618L1493.84,654.146ZM1372.55,654.146L1450.25,654.146L1450.25,984.618L1372.55,984.618L1372.55,654.146ZM1251.25,654.146L1328.95,654.146L1328.95,984.618L1251.25,984.618L1251.25,654.146ZM1129.95,654.146L1207.66,654.146L1207.66,984.618L1129.95,984.618L1129.95,654.146ZM211.601,1358.31L211.601,1295.03L464.745,1295.03L464.745,1358.31L211.601,1358.31ZM717.889,1358.31L717.889,1295.03L971.034,1295.03L971.034,1358.31L717.889,1358.31ZM1224.18,1358.31L1224.18,1295.03L1477.32,1295.03L1477.32,1358.31L1224.18,1358.31ZM1730.47,1358.31L1730.47,1295.03L1983.61,1295.03L1983.61,1358.31L1730.47,1358.31ZM2236.76,1358.31L2236.76,1295.03L2489.9,1295.03L2489.9,1358.31L2236.76,1358.31ZM1319.12,187.536L1382.41,187.536L1382.41,440.68L1319.12,440.68L1319.12,187.536Z" style="fill:white;"/>
    </g>
</svg>
