<?xml version="1.0" encoding="UTF-8" standalone="no"?>
<!DOCTYPE svg PUBLIC "-//W3C//DTD SVG 1.1//EN" "http://www.w3.org/Graphics/SVG/1.1/DTD/svg11.dtd">
<svg width="100%" height="100%" viewBox="0 0 2701 1651" version="1.1" xmlns="http://www.w3.org/2000/svg" xmlns:xlink="http://www.w3.org/1999/xlink" xml:space="preserve" xmlns:serif="http://www.serif.com/" style="fill-rule:evenodd;clip-rule:evenodd;stroke-linejoin:round;stroke-miterlimit:2;">
    <g>
        <path d="M2615.61,1588.97L85.527,1588.97L85.527,1063.92L1088.06,1063.92L1088.06,61.418L1613.08,61.418L1613.08,1063.92L2615.61,1063.92L2615.61,1588.97Z" style="fill:rgb(104,104,104);"/>
        <path d="M211.406,1358.1L211.406,1294.81L464.551,1294.81L464.551,1358.1L211.406,1358.1ZM717.695,1358.1L717.695,1294.81L970.839,1294.81L970.839,1358.1L717.695,1358.1ZM1223.98,1358.1L1223.98,1294.81L1477.13,1294.81L1477.13,1358.1L1223.98,1358.1ZM1730.27,1358.1L1730.27,1294.81L1983.42,1294.81L1983.42,1358.1L1730.27,1358.1ZM2236.56,1358.1L2236.56,1294.81L2489.71,1294.81L2489.71,1358.1L2236.56,1358.1ZM1318.93,187.297L1382.21,187.297L1382.21,440.44L1318.93,440.44L1318.93,187.297ZM1318.93,693.584L1382.21,693.584L1382.21,946.727L1318.93,946.727L1318.93,693.584Z" style="fill:white;"/>
    </g>
</svg>
