<?xml version="1.0" encoding="UTF-8" standalone="no"?>
<!DOCTYPE svg PUBLIC "-//W3C//DTD SVG 1.1//EN" "http://www.w3.org/Graphics/SVG/1.1/DTD/svg11.dtd">
<svg width="100%" height="100%" viewBox="0 0 3601 1951" version="1.1" xmlns="http://www.w3.org/2000/svg" xmlns:xlink="http://www.w3.org/1999/xlink" xml:space="preserve" xmlns:serif="http://www.serif.com/" style="fill-rule:evenodd;clip-rule:evenodd;stroke-linejoin:round;stroke-miterlimit:2;">
    <g transform="matrix(1,0,0,1,-12214,-7936)">
        <g transform="matrix(2.66467,0,0,2.66467,8799.93,-3038.54)">
            <path d="M2621.81,4827.68L1292.32,4827.68L1292.32,4630.65L1521.6,4630.65C1771.57,4630.65 1974.52,4427.7 1974.52,4177.73L1974.52,4141.48L2171.55,4141.48L2171.55,4177.73C2171.55,4353.77 2101.41,4513.56 1987.58,4630.65L2621.81,4630.65L2621.81,4827.68Z" style="fill:rgb(104,104,104);"/>
        </g>
        <g transform="matrix(2.66467,0,0,2.66467,8799.93,-3038.54)">
            <path d="M1879.71,4612.44L1864.59,4594.12C1888.51,4574.39 1910.71,4552.64 1930.91,4529.13L1948.92,4544.61C1927.84,4569.15 1904.67,4591.85 1879.71,4612.44ZM2005.57,4465.97L1985.18,4453.79C2000.99,4427.34 2014.59,4399.42 2025.73,4370.29L2047.91,4378.78C2036.27,4409.19 2022.07,4438.35 2005.57,4465.97ZM2074.58,4285.57L2051.26,4281.05C2057.08,4251.08 2060.42,4220.23 2061.05,4188.72L2084.8,4189.19C2084.14,4222.09 2080.65,4254.29 2074.58,4285.57ZM1339.57,4741.04L1339.57,4717.29L1434.57,4717.29L1434.57,4741.04L1339.57,4741.04ZM1529.57,4741.04L1529.57,4717.29L1624.57,4717.29L1624.57,4741.04L1529.57,4741.04ZM1719.57,4741.04L1719.57,4717.29L1814.57,4717.29L1814.57,4741.04L1719.57,4741.04ZM1909.57,4741.04L1909.57,4717.29L2004.57,4717.29L2004.57,4741.04L1909.57,4741.04ZM2099.57,4741.04L2099.57,4717.29L2194.57,4717.29L2194.57,4741.04L2099.57,4741.04ZM2289.57,4741.04L2289.57,4717.29L2384.57,4717.29L2384.57,4741.04L2289.57,4741.04ZM2479.57,4741.04L2479.57,4717.29L2574.57,4717.29L2574.57,4741.04L2479.57,4741.04Z" style="fill:white;"/>
        </g>
    </g>
</svg>
