<?xml version="1.0" encoding="UTF-8" standalone="no"?>
<!DOCTYPE svg PUBLIC "-//W3C//DTD SVG 1.1//EN" "http://www.w3.org/Graphics/SVG/1.1/DTD/svg11.dtd">
<svg width="100%" height="100%" viewBox="0 0 1951 1951" version="1.1" xmlns="http://www.w3.org/2000/svg" xmlns:xlink="http://www.w3.org/1999/xlink" xml:space="preserve" xmlns:serif="http://www.serif.com/" style="fill-rule:evenodd;clip-rule:evenodd;stroke-linejoin:round;stroke-miterlimit:2;">
    <g>
        <path d="M1890.08,1778.24L1890.08,1904.12L1365.04,1904.12L1365.04,1778.24C1365.04,1112.12 824.243,571.346 158.146,571.346L61.551,571.346L61.551,46.299L158.146,46.299C1114.03,46.299 1890.08,822.361 1890.08,1778.24Z" style="fill:rgb(104,104,104);"/>
        <path d="M1659.19,1778.24L1595.93,1778.24C1595.93,1694.19 1588.69,1611.81 1574.83,1531.71L1637.19,1520.91C1651.66,1604.54 1659.19,1690.52 1659.19,1778.24ZM1571.26,1271.17L1511.69,1292.56C1483.58,1214.31 1448.87,1139.19 1408.21,1067.88L1463.21,1036.54C1505.63,1111 1541.9,1189.44 1571.26,1271.17ZM1316.54,823.993L1267.71,864.26C1215.14,800.513 1157.18,741.364 1094.54,687.521L1135.78,639.527C1201.16,695.738 1261.66,757.471 1316.54,823.993ZM926.238,488.581L893.789,542.914C823.288,500.825 748.895,464.584 671.262,434.874L693.892,375.752C774.94,406.769 852.624,444.614 926.238,488.581ZM445.547,304.714L433.466,366.856C353.623,351.32 271.419,342.451 187.456,340.764L188.712,277.48C276.366,279.248 362.187,288.526 445.547,304.714Z" style="fill:white;"/>
    </g>
</svg>
