<?xml version="1.0" encoding="UTF-8" standalone="no"?>
<!DOCTYPE svg PUBLIC "-//W3C//DTD SVG 1.1//EN" "http://www.w3.org/Graphics/SVG/1.1/DTD/svg11.dtd">
<svg width="100%" height="100%" viewBox="0 0 3301 3301" version="1.1" xmlns="http://www.w3.org/2000/svg" xmlns:xlink="http://www.w3.org/1999/xlink" xml:space="preserve" xmlns:serif="http://www.serif.com/" style="fill-rule:evenodd;clip-rule:evenodd;stroke-linejoin:round;stroke-miterlimit:2;">
    <g transform="matrix(1,0,0,1,-3510,-10663)">
        <g transform="matrix(1.51513,0,0,1.51513,3043.27,10644.7)">
            <path d="M948.111,641.785L948.111,79.382L1294.64,79.382L1294.64,641.785L1689.17,641.785C2098.16,641.785 2430.22,973.841 2430.22,1382.84C2430.22,1791.84 2098.16,2123.89 1689.17,2123.89C1280.17,2123.89 948.111,1791.84 948.111,1382.84L948.111,988.316L364.847,988.316L364.847,641.785L948.111,641.785ZM1294.64,988.316L1294.64,1382.84C1294.64,1600.58 1471.42,1777.36 1689.17,1777.36C1906.91,1777.36 2083.69,1600.58 2083.69,1382.84C2083.69,1165.1 1906.91,988.316 1689.17,988.316L1294.64,988.316Z" style="fill:rgb(104,104,104);"/>
        </g>
        <g transform="matrix(1.51513,0,0,1.51513,3043.27,10644.7)">
            <path d="M1032.7,794.166L1199.78,794.166L1199.78,835.935L1032.7,835.935L1032.7,794.166ZM447.933,835.935L447.933,794.166L615.01,794.166L615.01,835.935L447.933,835.935ZM740.319,835.935L740.319,794.166L907.396,794.166L907.396,835.935L740.319,835.935ZM1325.09,835.935L1325.09,794.166L1492.17,794.166L1492.17,835.935L1325.09,835.935ZM1617.47,835.935L1617.47,794.166L1689.17,794.166C1722.7,794.166 1755.58,796.977 1787.58,802.375L1780.64,843.562C1750.89,838.546 1720.33,835.935 1689.17,835.935L1617.47,835.935ZM1896.42,876.631L1912.28,837.989C1966.18,860.107 2016.09,889.995 2060.6,926.257L2034.22,958.64C1992.87,924.95 1946.5,897.18 1896.42,876.631ZM2118.75,1044.5L2151.54,1018.63C2187.09,1063.68 2216.19,1114.04 2237.47,1168.32L2198.58,1183.57C2178.81,1133.14 2151.77,1086.35 2118.75,1044.5ZM2229.81,1299.86L2271.1,1293.57C2275.54,1322.68 2277.84,1352.49 2277.84,1382.84C2277.84,1411.11 2275.84,1438.92 2271.98,1466.13L2230.62,1460.27C2234.21,1434.97 2236.07,1409.12 2236.07,1382.84C2236.07,1354.63 2233.93,1326.92 2229.81,1299.86ZM2200.6,1576.88L2239.64,1591.72C2218.92,1646.24 2190.33,1696.89 2155.26,1742.29L2122.2,1716.75C2154.78,1674.58 2181.35,1627.53 2200.6,1576.88ZM2038.55,1803.47L2065.26,1835.58C2021.11,1872.31 1971.51,1902.7 1917.86,1925.37L1901.61,1886.89C1951.45,1865.83 1997.53,1837.59 2038.55,1803.47ZM1786.17,1921.16L1793.54,1962.27C1759.66,1968.34 1724.78,1971.51 1689.17,1971.51C1666.13,1971.51 1643.4,1970.19 1621.05,1967.61L1625.84,1926.11C1646.62,1928.51 1667.75,1929.75 1689.17,1929.75C1722.27,1929.75 1754.68,1926.8 1786.17,1921.16ZM1508.48,1899.15L1494.66,1938.57C1439.56,1919.26 1388.19,1891.99 1341.94,1858.13L1366.62,1824.42C1409.58,1855.88 1457.29,1881.21 1508.48,1899.15ZM1277.77,1743.04L1246.36,1770.57C1208.47,1727.35 1176.81,1678.54 1152.78,1625.55L1190.82,1608.3C1213.15,1657.53 1242.57,1702.88 1277.77,1743.04ZM1153.54,1493.8L1112.63,1502.24C1104.67,1463.68 1100.49,1423.74 1100.49,1382.84L1100.49,1331.73L1142.26,1331.73L1142.26,1382.84C1142.26,1420.85 1146.14,1457.96 1153.54,1493.8ZM1142.26,1206.43L1100.49,1206.43L1100.49,1039.35L1142.26,1039.35L1142.26,1206.43ZM1142.26,621.655L1100.49,621.655L1100.49,454.578L1142.26,454.578L1142.26,621.655ZM1142.26,329.27L1100.49,329.27L1100.49,162.192L1142.26,162.192L1142.26,329.27Z" style="fill:white;"/>
        </g>
    </g>
</svg>
