<?xml version="1.0" standalone="no"?>
<!DOCTYPE svg PUBLIC "-//W3C//DTD SVG 1.1//EN" "http://www.w3.org/Graphics/SVG/1.1/DTD/svg11.dtd">
<svg xmlns="http://www.w3.org/2000/svg" width="57" height="69" viewBox="0 0 57 69" fill="none">
<path d="M44.6804 58.3044C44.742 60.7808 43.5606 62.2297 41.1465 62.4763C40.6945 62.5277 40.2014 62.1372 39.3076 61.7981C41.1259 60.8116 43.3141 60.8116 42.9442 58.0167C41.4444 60.1643 39.924 59.2189 38.568 58.2941C36.4004 56.835 34.3458 55.2114 32.2604 53.6393C31.7878 53.2796 31.3666 52.8481 30.6578 52.211C31.0071 55.1806 32.5377 57.1946 34.0479 59.1881C35.4963 61.1096 36.9859 63.0106 38.5782 64.7986C39.5953 65.9392 38.794 66.6996 38.157 67.2853C37.4482 67.9429 36.5545 68.0662 35.8456 66.9667C35.1368 65.8672 34.2636 64.8705 33.4007 63.8738C32.4042 62.7332 31.6029 61.572 31.9522 59.9177C32.0241 59.5683 31.7878 59.0237 31.5104 58.7668C29.0963 56.5473 28.0382 53.7318 27.5862 50.5566C27.278 48.409 26.6719 46.3025 25.8809 44.1549C25.624 47.6691 25.3672 51.1731 25.1104 54.6874C22.8195 48.2754 23.1688 41.7504 23.6105 35.0404C23.2202 35.4926 22.8092 35.9241 22.46 36.4071C20.1794 39.5617 18.6898 43.076 18.1967 46.9088C17.7241 50.5771 18.8644 53.9373 21.9566 56.0027C25.6138 58.4482 27.9354 62.0036 30.7194 65.1993C31.5823 66.1858 32.3734 67.2236 33.1952 68.2409C33.1438 68.4053 33.0822 68.5594 33.0308 68.7239C32.435 68.5594 31.6954 68.5697 31.2742 68.1998C29.1374 66.3399 27.1547 64.2848 24.9768 62.4763C22.0388 60.041 19.4705 57.3488 17.7755 53.8448C16.5222 55.8074 16.892 61.3357 19.0596 63.8429C21.6176 66.8126 24.8844 67.7066 28.9011 67.4086C24.1961 69.3301 19.5835 66.4016 17.5392 63.3497C17.4776 63.2572 17.4468 63.1545 17.3954 63.062C14.18 57.7598 14.1902 57.7598 15.649 50.7005C16.0599 48.7275 16.4195 46.7443 16.8201 44.6789C15.6387 44.2576 14.7655 44.3399 14.0464 45.501C13.204 46.8779 12.1973 48.1521 11.2419 49.5085C9.44412 45.6654 12.2897 43.1993 13.5122 40.096C11.6528 41.3291 9.7934 42.5622 7.65663 43.9699C7.65663 43.0349 7.50253 42.2539 7.68745 41.5757C8.11891 39.9933 8.73529 38.4725 9.22839 36.9106C9.38249 36.4174 9.48522 35.8317 9.38249 35.3384C9.19757 34.4445 9.26948 33.7663 10.1016 33.2114C10.379 33.0264 10.5536 32.5024 10.5639 32.1324C10.605 30.1801 10.5228 28.2174 10.5947 26.2651C10.6666 24.3435 12.7417 22.124 14.632 21.6411C15.3922 21.4458 16.0599 20.9115 16.7996 20.6443C18.3713 20.0689 19.9431 19.4421 21.5662 19.0619C24.2988 18.4248 27.052 18.2912 29.8154 19.1338C32.5275 19.9559 34.3047 21.6513 35.4142 24.2305C35.7737 25.0731 36.4106 25.9157 37.14 26.4603C39.6672 28.3613 42.3279 30.0979 44.855 31.9989C45.3276 32.3482 45.6666 33.1703 45.6666 33.7765C45.6666 34.9171 46.2624 35.3384 47.1356 35.8625C50.125 37.671 53.0837 39.5206 55.9395 41.5243C56.5251 41.9354 56.8538 43.076 56.8538 43.8775C56.8436 45.203 56.5354 46.5388 56.2066 47.8438C55.5903 50.3203 55.015 52.8172 54.1623 55.2217C53.4432 57.2563 51.8406 58.3147 49.5908 58.2736C48.0294 58.2736 46.509 58.3044 44.6804 58.3044ZM53.7822 50.2997C54.0288 50.3203 54.2753 50.3408 54.5219 50.3614C54.6143 49.005 54.7068 47.6486 54.8095 46.1895C53.8541 46.3025 53.3405 46.3641 52.7241 46.4361C52.796 45.9531 52.8371 45.614 52.909 45.1619C50.988 45.5421 50.5257 44.3296 50.1559 42.9629C51.8714 43.3945 53.4946 43.8055 55.128 44.2268C55.6108 43.2506 55.6724 43.1582 54.5424 42.3875C51.1318 40.0447 47.6698 37.784 44.1462 35.4309C44.8447 34.2389 44.3927 33.345 43.0983 32.5435C41.3828 31.4851 39.8521 30.1184 38.1262 29.0703C37.0578 28.423 35.8045 27.9092 34.5821 27.7139C30.9762 27.1282 29.8976 27.9914 29.6716 31.6187C29.5997 32.677 29.9489 33.756 30.1441 34.8246C30.3907 36.2119 30.6372 37.5991 30.9762 38.9657C31.0892 39.4384 31.3769 39.9625 31.7467 40.281C33.7397 41.9867 35.7326 43.7028 37.8386 45.2647C39.1022 46.1997 39.2973 47.3506 39.2973 48.7789C38.1673 48.6042 37.1606 48.4501 36.0922 48.2857C35.1676 52.8172 37.9516 55.53 40.5815 58.6024C42.4306 56.3418 44.8858 56.4445 47.3719 56.65C47.8034 56.6809 48.2451 56.6603 48.6868 56.6706C52.2104 56.7117 53.7925 54.5641 52.6111 50.7621C49.5908 51.5739 46.55 52.3959 43.4476 53.2385C43.0778 52.0671 43.4784 51.5636 44.5982 51.4711C45.8515 51.3684 47.1253 51.3375 48.3375 51.0498C50.197 50.5977 52.5597 51.2142 53.5254 48.5323C53.6178 49.2619 53.7 49.7756 53.7822 50.2997ZM24.7714 31.6289C24.0728 30.6322 23.4462 29.6766 22.7476 28.7723C20.4567 25.8232 18.207 25.2067 14.6936 26.5425C11.9405 27.5906 11.1803 28.9881 11.961 31.855C12.8342 35.0507 14.8785 37.486 17.2413 39.7056C16.6455 37.784 15.8031 35.9447 15.3203 34.0232C14.9299 32.4715 14.8477 30.8069 14.8888 29.2039C14.9093 28.6079 15.8339 27.4673 16.0907 27.5393C18.0118 28.0428 19.8609 28.7929 21.7306 29.4608C21.6895 29.6149 21.6381 29.7691 21.597 29.9232C20.4362 29.9951 19.2651 30.0568 17.5495 30.1595C18.094 31.0946 18.3097 32.0708 18.8439 32.2969C22.9942 34.0129 23.0147 33.9718 24.7714 31.6289ZM33.3596 25.6794C32.1679 21.6513 30.6886 20.1922 27.5348 20.2641C24.381 20.3361 21.2375 20.7985 18.094 21.0862C18.094 21.2506 18.0837 21.415 18.0837 21.5794C23.2202 22.3501 28.4491 22.8125 33.3596 25.6794ZM34.2122 48.2138C34.3355 48.1007 34.4588 47.9877 34.5821 47.8747C31.418 43.6514 28.0793 39.5206 26.7746 34.0951C24.5865 37.7018 24.6378 39.6234 27.3499 42.3156C29.4764 44.4323 31.9111 46.2614 34.2122 48.2138ZM14.2108 23.5009C14.2416 23.6448 14.2827 23.7887 14.3135 23.9325C19.3473 24.8676 24.3913 25.8027 29.6305 26.7686C28.4594 24.7237 26.6411 24.025 24.6789 23.8195C21.6998 23.5112 18.7103 23.3674 15.7106 23.2029C15.2175 23.1824 14.7142 23.3982 14.2108 23.5009ZM13.5636 38.6677C12.6185 38.195 11.9199 37.856 11.0775 37.4347C10.6666 38.4519 10.3173 39.3459 9.80368 40.6406C11.2522 39.8802 12.2795 39.3356 13.5636 38.6677ZM24.5967 28.4846C26.4151 29.7485 27.4629 29.6355 28.4183 28.0017C27.0931 28.1763 25.8809 28.3202 24.5967 28.4846ZM18.2275 36.253C18.2275 37.3011 18.2275 38.1026 18.2275 39.2534C18.9261 38.4417 19.3883 37.8971 19.9328 37.26C19.3062 36.89 18.8233 36.6023 18.2275 36.253Z" fill="black"/>
<path d="M16.4914 67.3982C13.9026 65.7644 11.3139 64.1203 8.72508 62.4865C8.68399 62.4557 8.65317 62.4043 8.61208 62.3632C7.68751 61.2329 7.85188 55.0572 8.83808 53.9475C9.98865 52.6425 11.129 51.3478 12.5672 50.1455C12.0022 53.6187 11.4269 57.0815 10.8619 60.5547C10.944 60.5752 11.0365 60.6061 11.1187 60.6266C11.4269 60.0717 11.7351 59.5271 12.2076 58.6845C13.8205 61.572 15.3306 64.2642 16.8407 66.9667C16.738 67.1105 16.6147 67.2544 16.4914 67.3982Z" fill="black"/>
<path d="M6.40343 41.6682C5.31449 44.1755 4.22556 46.693 3.1469 49.2003C3.17772 49.2414 3.20854 49.2722 3.23936 49.3133C3.83519 48.5734 4.44129 47.8233 5.03712 47.0835C5.13985 47.1143 5.25286 47.1349 5.35559 47.1657C5.06794 51.4609 4.7803 55.7664 4.49266 60.0616C4.33856 60.1335 4.19474 60.1951 4.04065 60.2671C3.2599 59.147 2.29424 58.1092 1.72923 56.8761C-0.643822 51.7075 -0.643822 51.6664 2.1607 46.7033C3.21881 44.8331 4.53375 43.1068 5.73569 41.3086C5.96169 41.4319 6.1877 41.5449 6.40343 41.6682Z" fill="black"/>
<path d="M5.21165 33.273C5.93075 33.3244 6.41358 33.3552 7.05051 33.3963C5.4582 36.1194 3.94807 38.7294 2.42768 41.3291C2.28385 41.2983 2.12976 41.2674 1.98594 41.2366C1.88321 38.5444 1.75993 35.8419 1.6983 33.1497C1.68802 32.7901 1.94485 32.3071 2.23249 32.0605C4.00971 30.5192 5.80748 29.0189 7.64634 27.5495C7.93398 27.3235 8.40654 27.3235 8.78664 27.2207C8.85855 27.642 8.92018 28.0633 9.01264 28.4743C9.55711 31.1563 7.9648 32.2249 5.74584 32.8415C5.61229 32.8928 5.49929 33.0367 5.21165 33.273Z" fill="black"/>
<path d="M6.22876 52.4986C6.36231 50.6799 6.17739 48.7275 6.74241 47.032C7.12251 45.8606 8.54018 45.0385 9.71129 43.8363C8.43745 46.9704 7.32797 49.7345 6.22876 52.4986Z" fill="black"/>
<path d="M37.9928 37.0339C39.0098 36.9311 40.0269 36.8181 41.0336 36.7153C41.7014 37.3113 42.3691 37.9176 43.2423 38.6985C41.3007 38.2567 39.5749 37.8559 37.849 37.4655C37.9004 37.3216 37.9415 37.1777 37.9928 37.0339Z" fill="black"/>
<path d="M40.7357 33.0366C41.3315 33.8587 41.8246 34.5369 42.3177 35.215C41.5986 35.513 40.8898 35.811 40.3658 36.0268C40.4891 35.0609 40.5816 34.2902 40.7357 33.0366Z" fill="black"/>
<path d="M32.959 7.10107C34.0377 6.7106 34.6746 5.43642 34.3973 4.11087C34.0993 2.67228 32.846 1.71665 31.603 1.97354C30.36 2.23043 29.5895 3.60736 29.8874 5.04595C29.9799 5.49807 30.1751 5.9091 30.4216 6.24819L27.8123 7.58402L24.5352 4.59382C25.0694 3.99784 25.316 3.10386 25.1311 2.17906C24.8331 0.740472 23.5798 -0.215159 22.3368 0.041731C21.0938 0.298621 20.3233 1.67555 20.6212 3.11414C20.7548 3.74095 21.063 4.27528 21.4739 4.66575L18.4434 7.95394L14.3958 6.15571C14.6321 5.63166 14.7143 5.00485 14.5807 4.36776C14.2828 2.92917 13.0295 1.97354 11.7865 2.23043C10.5435 2.48732 9.77298 3.86425 10.0709 5.30284C10.2661 6.22764 10.8516 6.94693 11.5708 7.28603L9.83462 11.4476L6.93765 11.571C7.07119 11.1291 7.09174 10.6359 6.98901 10.1324C6.69109 8.69379 5.43779 7.73816 4.19477 7.99505C2.95174 8.25194 2.18127 9.62887 2.47918 11.0674C2.76683 12.4649 3.94822 13.4 5.16042 13.2253L8.6635 18.4556C8.6635 18.4556 18.9981 8.32386 32.4043 13.8624L32.959 7.10107ZM30.8736 11.1291C29.4046 10.6873 18.7926 7.90256 8.61214 15.8148L8.76623 16.0614L6.74246 13.1226L10.6975 12.9273L13.009 7.37851C13.1014 7.34768 13.1939 7.31686 13.2863 7.27575L18.7824 9.71107L22.871 5.27201C22.9737 5.28229 23.0765 5.27201 23.1792 5.26174L27.6582 9.34115L31.5208 7.38878L30.8736 11.1291Z" fill="black"/>
<path d="M14.1595 19.5551C14.1389 19.5242 14.1286 19.5037 14.1081 19.4728C14.4882 19.2057 14.5396 19.1029 14.4163 18.8974C14.0156 18.2192 13.8205 17.8699 13.4198 17.1917C13.2965 18.3836 13.276 18.9693 13.3068 20.1202C13.2554 20.1613 13.2246 20.1819 13.1733 20.2127C12.1151 19.8119 11.5501 19.6373 10.3996 19.3701C10.8721 19.9353 11.1084 20.223 11.5912 20.7881C11.7864 21.0245 11.9302 21.0039 12.3514 20.6956C12.372 20.7265 12.3925 20.747 12.4131 20.7779C11.9508 21.1478 11.7248 21.3327 11.283 21.7335C11.2522 21.7027 11.2419 21.6924 11.2111 21.6616C11.5604 21.3019 11.6015 21.2197 11.4269 21.0245C10.944 20.4593 10.6975 20.1716 10.2044 19.6064C10.0606 19.442 9.93728 19.4728 9.53663 19.8119C9.50581 19.7811 9.49554 19.7708 9.46472 19.74C10.0092 19.2468 10.2866 19.0104 10.8618 18.5686C11.7761 18.8152 12.2179 18.9591 13.0705 19.2879C13.0808 18.3734 13.1116 17.911 13.2246 16.9759C13.841 16.6162 14.1595 16.4518 14.7964 16.1436C14.8169 16.1744 14.8272 16.1949 14.8375 16.236C14.3855 16.4724 14.3238 16.5854 14.4574 16.8526C14.7656 17.4588 14.9299 17.7568 15.2381 18.3631C15.3717 18.62 15.4539 18.6611 15.9161 18.4761C15.9367 18.5069 15.947 18.5275 15.9572 18.5686C15.2279 18.9282 14.8683 19.1235 14.1595 19.5551Z" fill="black"/>
<path d="M16.214 18.4556C16.1935 18.4145 16.1935 18.4042 16.1729 18.3631C16.5838 18.137 16.666 18.0548 16.5736 17.8288C16.2756 17.1403 16.1318 16.8012 15.8339 16.1127C15.7415 15.9072 15.5874 15.9072 15.1251 16.1025C15.1045 16.0614 15.1045 16.0511 15.084 16.01C15.9777 15.5887 16.4297 15.414 17.3646 15.0955C17.3749 15.1366 17.3851 15.1571 17.3954 15.1879C16.9126 15.3626 16.7996 15.4757 16.8715 15.6914C17.1283 16.3902 17.2619 16.7396 17.5187 17.4486C17.6111 17.6952 17.7344 17.6849 18.1864 17.5513C18.1967 17.5924 18.207 17.613 18.2172 17.6438C17.3954 17.9212 16.9948 18.0857 16.214 18.4556Z" fill="black"/>
<path d="M20.919 16.9451C20.9087 16.904 20.9087 16.8834 20.8984 16.8423C21.2888 16.7601 21.3607 16.7293 21.3504 16.6779C21.3402 16.6368 21.2991 16.606 21.1655 16.5238C20.6622 16.2463 20.3951 16.1127 19.8609 15.8661C19.7992 15.9175 19.7684 15.9483 19.7068 15.9997C19.7787 16.308 19.8095 16.4518 19.8814 16.7601C19.9225 16.9451 20.0252 16.9656 20.467 16.9142C20.4772 16.9553 20.4772 16.9759 20.4875 17.0067C19.676 17.1711 19.2753 17.2842 18.4946 17.5308C18.4843 17.4897 18.474 17.4691 18.4637 17.4383C18.8952 17.2739 18.9568 17.2122 18.8952 16.9862C18.6898 16.2669 18.5768 15.9072 18.3713 15.1879C18.2994 14.9516 18.1658 14.9311 17.7035 15.0646C17.6933 15.0235 17.683 15.003 17.6727 14.9722C18.5665 14.6844 19.0288 14.5611 19.9533 14.3762C19.9636 14.4173 19.9636 14.4378 19.9739 14.4686C19.4705 14.592 19.3986 14.6947 19.45 14.9311C19.5321 15.2804 19.5732 15.4448 19.6554 15.7942C20.1177 15.3318 20.3642 15.1057 20.8779 14.6742C21.0628 14.52 21.1244 14.4686 21.1142 14.407C21.1039 14.3248 21.0114 14.3042 20.7649 14.3351C20.6724 14.3453 20.6211 14.3556 20.5183 14.3659C20.5081 14.3248 20.5081 14.3042 20.4978 14.2631C21.2888 14.1193 21.6895 14.0679 22.501 13.996C22.501 14.0371 22.5113 14.0576 22.5113 14.0987C21.8333 14.2118 21.5354 14.2837 20.4567 15.2907C21.371 15.7325 21.8025 15.9689 22.614 16.5032C22.6962 16.5546 22.7681 16.5649 22.9222 16.5649C22.9222 16.606 22.9222 16.6265 22.9325 16.6676C22.1312 16.7498 21.7203 16.8012 20.919 16.9451Z" fill="black"/>
<path d="M25.2645 16.6368C25.2645 16.5957 25.2645 16.5751 25.2645 16.534C25.3467 16.534 25.3878 16.534 25.4597 16.534C25.6652 16.534 25.7473 16.5032 25.7576 16.421C25.7679 16.3388 25.696 16.1847 25.5008 15.8661C24.9255 15.8353 24.6379 15.8353 24.0523 15.8456C24.0215 15.897 24.0009 15.9278 23.9701 15.9792C23.8982 16.1025 23.7852 16.2771 23.7852 16.3696C23.7852 16.4724 23.929 16.5135 24.2886 16.5238C24.2886 16.5649 24.2886 16.5854 24.2886 16.6265C23.7852 16.6265 23.5387 16.6368 23.0456 16.6779C23.0456 16.6368 23.0456 16.6162 23.0353 16.5751C23.3126 16.5238 23.4051 16.4518 23.6311 16.0614C24.155 15.1674 24.4529 14.7358 25.1001 13.8829C25.1823 13.8829 25.2234 13.8829 25.2953 13.8932C25.8912 14.7461 26.1583 15.1879 26.6308 16.0716C26.9082 16.5854 27.0006 16.6882 27.2472 16.719C27.2369 16.7601 27.2369 16.7807 27.2369 16.8218C26.4664 16.7087 26.0658 16.6676 25.2645 16.6368ZM24.7817 14.7153C24.5249 15.0955 24.4016 15.2907 24.155 15.6812C24.6584 15.6709 24.9152 15.6812 25.4186 15.7017C25.1721 15.3112 25.0488 15.1057 24.7817 14.7153Z" fill="black"/>
<path d="M32.2295 15.4449C31.9932 15.373 31.8391 15.373 31.7158 15.4243C31.0378 15.7121 30.7091 15.8662 30.0824 16.2053C30.0105 16.4827 29.9694 16.6163 29.8872 16.8835C29.805 17.1815 29.8667 17.2534 30.3392 17.4281C30.329 17.4692 30.3187 17.4897 30.3084 17.5206C29.466 17.2534 29.0448 17.1506 28.1922 16.9862C28.2024 16.9451 28.2025 16.9246 28.2127 16.8835C28.7264 16.9554 28.8086 16.8938 28.8805 16.606C28.9318 16.3902 28.9524 16.2875 29.0037 16.082C28.6545 15.4654 28.4695 15.1675 28.0586 14.5612C27.9456 14.4071 27.7504 14.2838 27.5142 14.2426C27.5244 14.2015 27.5244 14.181 27.5244 14.1399C28.4593 14.2735 28.9318 14.366 29.8667 14.592C29.8564 14.6331 29.8564 14.6537 29.8461 14.6845C29.7742 14.6639 29.7331 14.6639 29.6612 14.6434C29.3838 14.592 29.2811 14.5817 29.2606 14.6742C29.2503 14.7051 29.3119 14.8284 29.3736 14.9414C29.6201 15.373 29.7331 15.599 29.9489 16.0409C30.3084 15.8456 30.4933 15.7532 30.8631 15.5682C31.0892 15.4552 31.233 15.3421 31.2638 15.2702C31.2946 15.1572 31.2022 15.0852 30.7399 14.9311C30.7501 14.89 30.7604 14.8695 30.7707 14.8386C31.3768 15.0133 31.6747 15.1161 32.2808 15.3421C32.25 15.3832 32.25 15.4038 32.2295 15.4449Z" fill="black"/>
</svg>