<?xml version="1.0" standalone="no"?><svg xmlns:xlink="http://www.w3.org/1999/xlink" xmlns="http://www.w3.org/2000/svg" viewBox="0 0 1000 500" preserveAspectRatio="xMaxYMax slice"><g transform="scale(0.6775067750677507)"><rect x="0" y="0" width="1476" height="738" fill="#ffffff"/><rect x="627.3" y="36.9" width="73.8" height="73.8" fill="#ffffff"/><g transform="translate(627.3,73.8) scale(1.845) rotate(0)"><path d="M10 0L20 10L10 20L0 10L10 0Z" fill="#f7d97c"/></g><rect x="922.4999999999999" y="36.9" width="73.8" height="73.8" fill="#ffffff"/><polygon points="922.5,73.8 959.4,73.8 922.5,110.69999999999999" fill="#f3c231"/><rect x="1070.1000000000001" y="36.9" width="73.8" height="73.8" fill="#ffffff"/><polygon points="1107,73.8 1107,110.69999999999999 1070.1,110.69999999999999" fill="#f3c335"/><rect x="36.9" y="184.5" width="73.8" height="73.8" fill="#ffffff"/><circle cx="55.349999999999994" cy="202.95" r="18.45" fill="#090909"/><circle cx="92.25" cy="239.85" r="18.45" fill="#f5d44f"/><rect x="184.5" y="184.5" width="73.8" height="73.8" fill="#ffffff"/><g transform="translate(184.5,184.5) scale(1.845) rotate(0)"><rect width="20" height="10" fill="#0d0d0d"/></g><rect x="184.5" y="221.4" width="36.9" height="36.9" fill="#f7dd74"/><g transform="translate(221.4,221.4) scale(1.845) rotate(0)"><path d="M10 0L20 10L10 20L0 10L10 0Z" fill="#7a7a7a"/></g><rect x="332.09999999999997" y="184.5" width="73.8" height="73.8" fill="#ffffff"/><rect x="774.9" y="184.5" width="73.8" height="73.8" fill="#ffffff"/><circle cx="830.25" cy="202.95" r="18.45" fill="#fbe9b5"/><g transform="translate(811.8,221.4) scale(1.845) rotate(0)"><path d="M10 5L5 0L0 5L5 10L0 15L5 20L10 15L15 20L20 15L15 10L20 5L15 0L10 5Z" fill="#f6d368"/></g><rect x="1070.1000000000001" y="184.5" width="73.8" height="73.8" fill="#ffffff"/><rect x="1365.3" y="184.5" width="73.8" height="73.8" fill="#ffffff"/><circle cx="1383.75" cy="239.85" r="18.45" fill="#6f6f6f"/><rect x="36.9" y="332.09999999999997" width="73.8" height="73.8" fill="#ffffff"/><circle cx="55.349999999999994" cy="387.45" r="18.45" fill="#fae9a5"/><rect x="184.5" y="332.09999999999997" width="73.8" height="73.8" fill="#ffffff"/><rect x="774.9" y="332.09999999999997" width="73.8" height="73.8" fill="#ffffff"/><polygon points="774.9,332.1 811.8,332.1 811.8,369" fill="#f8e183"/><rect x="774.9" y="369" width="36.9" height="36.9" fill="#060606"/><rect x="1070.1000000000001" y="332.09999999999997" width="73.8" height="73.8" fill="#ffffff"/><g transform="translate(1070.1,369) scale(1.845) rotate(0)"><path d="M10 5L5 0L0 5L5 10L0 15L5 20L10 15L15 20L20 15L15 10L20 5L15 0L10 5Z" fill="#464646"/></g><rect x="1217.7" y="479.69999999999993" width="73.8" height="73.8" fill="#ffffff"/><rect x="1217.7" y="479.7" width="36.9" height="36.9" fill="#f7d46e"/><g transform="translate(1254.6,479.7) scale(1.845) rotate(0)"><path d="M10 5L5 0L0 5L5 10L0 15L5 20L10 15L15 20L20 15L15 10L20 5L15 0L10 5Z" fill="#b2b2b2"/></g><rect x="1365.3" y="479.69999999999993" width="73.8" height="73.8" fill="#ffffff"/><g transform="translate(1365.3,479.7) scale(1.845) rotate(0)"><path d="M10 0L20 10L10 20L0 10L10 0Z" fill="#faeaa8"/></g><rect x="1365.3" y="516.6" width="36.9" height="36.9" fill="#3e3e3e"/><rect x="184.5" y="627.3" width="73.8" height="73.8" fill="#ffffff"/><rect x="221.4" y="627.3" width="36.9" height="36.9" fill="#fbedb7"/><polygon points="184.5,664.2 221.4,664.2 184.5,701.1" fill="#fbecbf"/><circle cx="239.85" cy="682.6500000000001" r="18.45" fill="#fffdfa"/><rect x="332.09999999999997" y="627.3" width="73.8" height="73.8" fill="#ffffff"/><rect x="922.4999999999999" y="627.3" width="73.8" height="73.8" fill="#ffffff"/></g></svg>