<?xml version="1.0" standalone="no"?><svg xmlns:xlink="http://www.w3.org/1999/xlink" xmlns="http://www.w3.org/2000/svg" viewBox="0 0 1000 500" preserveAspectRatio="xMaxYMax slice"><g transform="scale(0.6775067750677507)"><rect x="0" y="0" width="1476" height="738" fill="#ffffff"/><rect x="184.5" y="36.9" width="73.8" height="73.8" fill="#ffffff"/><path d="M 184.5 110.69999999999999 A 36.9 36.9 0 0 0 221.4 73.8 L 184.5 73.8" fill="#fffefd"/><rect x="479.69999999999993" y="36.9" width="73.8" height="73.8" fill="#ffffff"/><path d="M 516.6 73.8 A 36.9 36.9 0 0 1 553.5 110.69999999999999 L 516.6 110.69999999999999" fill="#fae8a3"/><rect x="774.9" y="36.9" width="73.8" height="73.8" fill="#ffffff"/><path d="M 774.9 36.9 A 36.9 36.9 0 0 1 811.8 73.8 L 774.9 73.8" fill="#f9e490"/><rect x="922.4999999999999" y="36.9" width="73.8" height="73.8" fill="#ffffff"/><path d="M 922.5 73.8 A 36.9 36.9 0 0 0 959.4 110.69999999999999 L 959.4 101.475 A 27.674999999999997 27.674999999999997 0 0 1 931.725 73.8" fill="#f7db6d"/><path d="M 959.4 110.69999999999999 A 36.9 36.9 0 0 0 996.3 73.8 L 987.0749999999999 73.8 A 27.674999999999997 27.674999999999997 0 0 1 959.4 101.475" fill="#faeaa8"/><rect x="36.9" y="184.5" width="73.8" height="73.8" fill="#ffffff"/><polygon points="73.8,184.5 73.8,221.4 36.9,221.4" fill="#8e8e8e"/><rect x="922.4999999999999" y="184.5" width="73.8" height="73.8" fill="#ffffff"/><path d="M 922.5 221.4 A 36.9 36.9 0 0 0 959.4 184.5 L 922.5 184.5" fill="#f6d964"/><path d="M 959.4 184.5 A 36.9 36.9 0 0 0 996.3 221.4 L 996.3 184.5" fill="#fdf8e4"/><rect x="332.09999999999997" y="332.09999999999997" width="73.8" height="73.8" fill="#ffffff"/><polygon points="332.1,369 369,369 332.1,405.9" fill="#f4d142"/><rect x="774.9" y="332.09999999999997" width="73.8" height="73.8" fill="#ffffff"/><polygon points="774.9,369 811.8,369 811.8,405.9" fill="#222222"/><rect x="922.4999999999999" y="332.09999999999997" width="73.8" height="73.8" fill="#ffffff"/><polygon points="959.4,332.1 996.3,332.1 959.4,369" fill="#f8e28a"/><rect x="36.9" y="479.69999999999993" width="73.8" height="73.8" fill="#ffffff"/><rect x="184.5" y="479.69999999999993" width="73.8" height="73.8" fill="#ffffff"/><polygon points="184.5,516.6 221.4,516.6 184.5,553.5" fill="#c5c5c5"/><rect x="479.69999999999993" y="479.69999999999993" width="73.8" height="73.8" fill="#ffffff"/><path d="M 479.7 479.7 A 36.9 36.9 0 0 0 516.6 516.6 L 516.6 479.7" fill="#f6d85f"/><path d="M 479.7 553.5 A 36.9 36.9 0 0 1  516.6 516.6 L 516.6 553.5" fill="#fffefd"/><path d="M 516.6 516.6 A 36.9 36.9 0 0 1 553.5 553.5 L 516.6 553.5" fill="#060606"/><rect x="627.3" y="479.69999999999993" width="73.8" height="73.8" fill="#ffffff"/><rect x="664.2" y="479.7" width="36.9" height="36.9" fill="#fefae9"/><rect x="664.2" y="516.6" width="36.9" height="36.9" fill="#f5d34b"/><rect x="922.4999999999999" y="479.69999999999993" width="73.8" height="73.8" fill="#ffffff"/><path d="M 922.5 516.6 A 36.9 36.9 0 0 1  959.4 479.7 L 959.4 516.6" fill="#faeaab"/><path d="M 922.5 516.6 A 36.9 36.9 0 0 0 959.4 553.5 L 959.4 516.6" fill="#1d1d1d"/><path d="M 959.4 553.5 A 36.9 36.9 0 0 0 996.3 516.6 L 959.4 516.6" fill="#c2c2c2"/><rect x="1365.3" y="479.69999999999993" width="73.8" height="73.8" fill="#ffffff"/><path d="M 1365.3 553.5 A 36.9 36.9 0 0 1  1402.2 516.6 L 1402.2 553.5" fill="#191919"/><path d="M 1402.2 516.6 A 36.9 36.9 0 0 1 1439.1000000000001 553.5 L 1402.2 553.5" fill="#fffefc"/><rect x="184.5" y="627.3" width="73.8" height="73.8" fill="#ffffff"/><polygon points="184.5,664.2 221.4,664.2 221.4,701.1" fill="#f5d249"/><rect x="627.3" y="627.3" width="73.8" height="73.8" fill="#ffffff"/><polygon points="627.3,664.2 664.1999999999999,664.2 664.1999999999999,701.1" fill="#f5f5f5"/><rect x="922.4999999999999" y="627.3" width="73.8" height="73.8" fill="#ffffff"/><path d="M 959.4 627.3 A 36.9 36.9 0 0 1 996.3 664.1999999999999 L 959.4 664.1999999999999" fill="#929292"/><path d="M 959.4 701.1 A 36.9 36.9 0 0 0 996.3 664.2 L 959.4 664.2" fill="#f6d965"/><rect x="1070.1000000000001" y="627.3" width="73.8" height="73.8" fill="#ffffff"/><polygon points="1107,627.3 1143.9,664.1999999999999 1107,664.1999999999999" fill="#131313"/><rect x="1217.7" y="627.3" width="73.8" height="73.8" fill="#ffffff"/><path d="M 1254.6 627.3 A 36.9 36.9 0 0 0 1291.5 664.1999999999999 L 1291.5 627.3" fill="#696969"/></g></svg>