<?xml version="1.0" standalone="no"?><svg xmlns:xlink="http://www.w3.org/1999/xlink" xmlns="http://www.w3.org/2000/svg" viewBox="0 0 1000 700.0037940585044" preserveAspectRatio="xMaxYMax slice"><g transform="scale(0.9485146260955344)"><rect x="0" y="0" width="1054.2857142857142" height="738" fill="#ffffff"/><rect x="448.07142857142856" y="26.357142857142858" width="52.714285714285715" height="52.714285714285715" fill="#ffffff"/><rect x="975.2142857142858" y="26.357142857142858" width="52.714285714285715" height="52.714285714285715" fill="#ffffff"/><g transform="translate(975.21,26.36) scale(1.318) rotate(0)"><path d="M10 5L5 0L0 5L5 10L0 15L5 20L10 15L15 20L20 15L15 10L20 5L15 0L10 5Z" fill="#f9e594"/></g><polygon points="1001.57,26.36 1027.93,26.36 1001.57,52.72" fill="#f7dc70"/><rect x="26.357142857142858" y="131.78571428571428" width="52.714285714285715" height="52.714285714285715" fill="#ffffff"/><g transform="translate(26.36,131.79) scale(1.318) rotate(0)"><path d="M10 0L20 10L10 20L0 10L10 0Z" fill="#f9f9f9"/></g><g transform="translate(52.71,131.79) scale(1.318) rotate(0)"><path d="M10 5L5 0L0 5L5 10L0 15L5 20L10 15L15 20L20 15L15 10L20 5L15 0L10 5Z" fill="#060606"/></g><rect x="342.6428571428571" y="131.78571428571428" width="52.714285714285715" height="52.714285714285715" fill="#ffffff"/><g transform="translate(342.64,131.79) scale(1.318) rotate(0)"><path d="M10 5L5 0L0 5L5 10L0 15L5 20L10 15L15 20L20 15L15 10L20 5L15 0L10 5Z" fill="#f2bf25"/></g><rect x="869.7857142857143" y="131.78571428571428" width="52.714285714285715" height="52.714285714285715" fill="#ffffff"/><circle cx="882.9699999999999" cy="144.97" r="13.18" fill="#fbefbf"/><rect x="26.357142857142858" y="237.21428571428572" width="52.714285714285715" height="52.714285714285715" fill="#ffffff"/><g transform="translate(52.71,237.21) scale(1.318) rotate(0)"><path d="M10 5L5 0L0 5L5 10L0 15L5 20L10 15L15 20L20 15L15 10L20 5L15 0L10 5Z" fill="#868686"/></g><polygon points="52.71,263.57 79.07,289.93 52.71,289.93" fill="#f6d860"/><rect x="975.2142857142858" y="237.21428571428572" width="52.714285714285715" height="52.714285714285715" fill="#ffffff"/><g transform="translate(975.21,237.21) scale(1.318) rotate(0)"><rect width="20" height="10" fill="#fdf6db"/></g><polygon points="1001.57,237.21 1027.93,237.21 1001.57,263.57" fill="#fdf4db"/><rect x="975.21" y="263.57" width="26.36" height="26.36" fill="#fef7e5"/><circle cx="1014.75" cy="276.75" r="13.18" fill="#f7d97e"/><rect x="26.357142857142858" y="342.6428571428571" width="52.714285714285715" height="52.714285714285715" fill="#ffffff"/><polygon points="52.71,342.64 79.07,369 52.71,369" fill="#d8d8d8"/><g transform="translate(26.36,369) scale(1.318) rotate(0)"><rect width="20" height="10" fill="#f6d267"/></g><polygon points="79.07,369 79.07,395.36 52.71,395.36" fill="#f8e080"/><rect x="553.5" y="342.6428571428571" width="52.714285714285715" height="52.714285714285715" fill="#ffffff"/><rect x="975.2142857142858" y="342.6428571428571" width="52.714285714285715" height="52.714285714285715" fill="#ffffff"/><circle cx="988.39" cy="355.82" r="13.18" fill="#525252"/><rect x="237.21428571428572" y="448.07142857142856" width="52.714285714285715" height="52.714285714285715" fill="#ffffff"/><g transform="translate(263.57,448.07) scale(1.318) rotate(0)"><path d="M10 0L20 10L10 20L0 10L10 0Z" fill="#fdf7df"/></g><polygon points="263.57,474.43 263.57,500.79 237.21,500.79" fill="#f6d05f"/><rect x="448.07142857142856" y="448.07142857142856" width="52.714285714285715" height="52.714285714285715" fill="#ffffff"/><g transform="translate(448.07,448.07) scale(1.318) rotate(0)"><path d="M10 5L5 0L0 5L5 10L0 15L5 20L10 15L15 20L20 15L15 10L20 5L15 0L10 5Z" fill="#fbeeb8"/></g><rect x="553.5" y="448.07142857142856" width="52.714285714285715" height="52.714285714285715" fill="#ffffff"/><g transform="translate(579.86,474.43) scale(1.318) rotate(0)"><path d="M10 5L5 0L0 5L5 10L0 15L5 20L10 15L15 20L20 15L15 10L20 5L15 0L10 5Z" fill="#fcf2d1"/></g><rect x="658.9285714285714" y="448.07142857142856" width="52.714285714285715" height="52.714285714285715" fill="#ffffff"/><circle cx="698.4699999999999" cy="461.25" r="13.18" fill="#fffdf7"/><rect x="764.3571428571429" y="448.07142857142856" width="52.714285714285715" height="52.714285714285715" fill="#ffffff"/><g transform="translate(790.71,448.07) scale(1.318) rotate(0)"><path d="M10 5L5 0L0 5L5 10L0 15L5 20L10 15L15 20L20 15L15 10L20 5L15 0L10 5Z" fill="#393939"/></g><rect x="869.7857142857143" y="448.07142857142856" width="52.714285714285715" height="52.714285714285715" fill="#ffffff"/><g transform="translate(896.14,448.07) scale(1.318) rotate(0)"><rect width="20" height="10" fill="#fcf0c2"/></g><circle cx="909.3199999999999" cy="487.61" r="13.18" fill="#262626"/><rect x="26.357142857142858" y="553.5" width="52.714285714285715" height="52.714285714285715" fill="#ffffff"/><g transform="translate(52.71,553.5) scale(1.318) rotate(0)"><path d="M10 0L20 10L10 20L0 10L10 0Z" fill="#040404"/></g><g transform="translate(26.36,579.86) scale(1.318) rotate(0)"><path d="M10 0L20 10L10 20L0 10L10 0Z" fill="#fdf3d7"/></g><rect x="237.21428571428572" y="553.5" width="52.714285714285715" height="52.714285714285715" fill="#ffffff"/><g transform="translate(237.21,579.86) scale(1.318) rotate(0)"><path d="M10 0L20 10L10 20L0 10L10 0Z" fill="#fffefd"/></g><polygon points="289.93,579.86 289.93,606.22 263.57,606.22" fill="#f5d552"/><rect x="342.6428571428571" y="553.5" width="52.714285714285715" height="52.714285714285715" fill="#ffffff"/><g transform="translate(342.64,579.86) scale(1.318) rotate(0)"><rect width="20" height="10" fill="#434343"/></g><rect x="658.9285714285714" y="553.5" width="52.714285714285715" height="52.714285714285715" fill="#ffffff"/><g transform="translate(658.93,579.86) scale(1.318) rotate(0)"><path d="M10 0L20 10L10 20L0 10L10 0Z" fill="#f6d75c"/></g><g transform="translate(685.29,579.86) scale(1.318) rotate(0)"><rect width="20" height="10" fill="#f1ba13"/></g><rect x="764.3571428571429" y="553.5" width="52.714285714285715" height="52.714285714285715" fill="#ffffff"/><g transform="translate(764.36,553.5) scale(1.318) rotate(0)"><rect width="20" height="10" fill="#fdf7dd"/></g><rect x="790.71" y="553.5" width="26.36" height="26.36" fill="#f5d552"/><rect x="869.7857142857143" y="553.5" width="52.714285714285715" height="52.714285714285715" fill="#ffffff"/><g transform="translate(869.79,553.5) scale(1.318) rotate(0)"><rect width="20" height="10" fill="#f6da67"/></g><circle cx="909.3199999999999" cy="593.04" r="13.18" fill="#f7de77"/><rect x="975.2142857142858" y="553.5" width="52.714285714285715" height="52.714285714285715" fill="#ffffff"/><g transform="translate(975.21,579.86) scale(1.318) rotate(0)"><rect width="20" height="10" fill="#f9df92"/></g><g transform="translate(1001.57,579.86) scale(1.318) rotate(0)"><rect width="20" height="10" fill="#fdf6e0"/></g><rect x="237.21428571428572" y="658.9285714285714" width="52.714285714285715" height="52.714285714285715" fill="#ffffff"/><circle cx="250.39000000000001" cy="698.4699999999999" r="13.18" fill="#f6f6f6"/><rect x="869.7857142857143" y="658.9285714285714" width="52.714285714285715" height="52.714285714285715" fill="#ffffff"/></g></svg>