<?xml version="1.0" standalone="no"?><svg xmlns:xlink="http://www.w3.org/1999/xlink" xmlns="http://www.w3.org/2000/svg" viewBox="0 0 1000 200.00000000000003" preserveAspectRatio="xMaxYMax slice"><g transform="scale(0.6622516556291391)"><rect x="0" y="0" width="1510" height="302" fill="#ffffff"/><rect x="339.75" y="37.75" width="75.5" height="75.5" fill="#ffffff"/><path d="M 377.5 75.5 A 37.75 37.75 0 0 1  415.25 37.75 L 377.5 75.5 A 37.75 37.75 0 0 0 415.25 37.75" fill="#cfcfcf"/><rect x="490.75" y="37.75" width="75.5" height="75.5" fill="#ffffff"/><path d="M 528.5 75.5 A 37.75 37.75 0 0 1  566.25 37.75 L 528.5 75.5 A 37.75 37.75 0 0 0 566.25 37.75" fill="#f8e288"/><path d="M 528.5 113.25 A 37.75 37.75 0 0 1  566.25 75.5 L 528.5 113.25 A 37.75 37.75 0 0 0 566.25 75.5" fill="#6c6c6c"/><rect x="792.75" y="37.75" width="75.5" height="75.5" fill="#ffffff"/><path d="M 792.75 75.5 A 37.75 37.75 0 0 1  830.5 37.75 L 792.75 75.5 A 37.75 37.75 0 0 0 830.5 37.75" fill="#faeaa8"/><path d="M 830.5 75.5 A 37.75 37.75 0 0 1  868.25 37.75 L 830.5 75.5 A 37.75 37.75 0 0 0 868.25 37.75" fill="#fae9a7"/><path d="M 830.5 75.5 A 37.75 37.75 0 0 1  868.25 113.25 L 830.5 75.5 A 37.75 37.75 0 0 0 868.25 113.25" fill="#2e2e2e"/><rect x="1094.75" y="37.75" width="75.5" height="75.5" fill="#ffffff"/><path d="M 1094.75 75.5 A 37.75 37.75 0 0 1  1132.5 37.75 L 1094.75 75.5 A 37.75 37.75 0 0 0 1132.5 37.75" fill="#fcf2cb"/><path d="M 1132.5 75.5 A 37.75 37.75 0 0 1  1170.25 37.75 L 1132.5 75.5 A 37.75 37.75 0 0 0 1170.25 37.75" fill="#faecaf"/><path d="M 1094.75 113.25 A 37.75 37.75 0 0 1  1132.5 75.5 L 1094.75 113.25 A 37.75 37.75 0 0 0 1132.5 75.5" fill="#fcfcfc"/><rect x="1245.75" y="37.75" width="75.5" height="75.5" fill="#ffffff"/><path d="M 1245.75 75.5 A 37.75 37.75 0 0 1  1283.5 37.75 L 1245.75 75.5 A 37.75 37.75 0 0 0 1283.5 37.75" fill="#f8e289"/><path d="M 1245.75 113.25 A 37.75 37.75 0 0 1  1283.5 75.5 L 1245.75 113.25 A 37.75 37.75 0 0 0 1283.5 75.5" fill="#f5d555"/><rect x="1396.75" y="37.75" width="75.5" height="75.5" fill="#ffffff"/><path d="M 1396.75 75.5 A 37.75 37.75 0 0 1  1434.5 113.25 L 1396.75 75.5 A 37.75 37.75 0 0 0 1434.5 113.25" fill="#fbfbfb"/><path d="M 1434.5 113.25 A 37.75 37.75 0 0 1  1472.25 75.5 L 1434.5 113.25 A 37.75 37.75 0 0 0 1472.25 75.5" fill="#f6d964"/><rect x="37.75" y="188.75" width="75.5" height="75.5" fill="#ffffff"/><path d="M 37.75 188.75 A 37.75 37.75 0 0 1  75.5 226.5 L 37.75 188.75 A 37.75 37.75 0 0 0 75.5 226.5" fill="#7a7a7a"/><path d="M 75.5 226.5 A 37.75 37.75 0 0 1  113.25 264.25 L 75.5 226.5 A 37.75 37.75 0 0 0 113.25 264.25" fill="#e0e0e0"/><rect x="188.75" y="188.75" width="75.5" height="75.5" fill="#ffffff"/><path d="M 188.75 226.5 A 37.75 37.75 0 0 1  226.5 188.75 L 188.75 226.5 A 37.75 37.75 0 0 0 226.5 188.75" fill="#5d5d5d"/><path d="M 226.5 226.5 A 37.75 37.75 0 0 1  264.25 188.75 L 226.5 226.5 A 37.75 37.75 0 0 0 264.25 188.75" fill="#f2f2f2"/><path d="M 226.5 226.5 A 37.75 37.75 0 0 1  264.25 264.25 L 226.5 226.5 A 37.75 37.75 0 0 0 264.25 264.25" fill="#131313"/><rect x="490.75" y="188.75" width="75.5" height="75.5" fill="#ffffff"/><path d="M 528.5 188.75 A 37.75 37.75 0 0 1  566.25 226.5 L 528.5 188.75 A 37.75 37.75 0 0 0 566.25 226.5" fill="#acacac"/><path d="M 490.75 264.25 A 37.75 37.75 0 0 1  528.5 226.5 L 490.75 264.25 A 37.75 37.75 0 0 0 528.5 226.5" fill="#f9e493"/><path d="M 528.5 226.5 A 37.75 37.75 0 0 1  566.25 264.25 L 528.5 226.5 A 37.75 37.75 0 0 0 566.25 264.25" fill="#faebac"/><rect x="792.75" y="188.75" width="75.5" height="75.5" fill="#ffffff"/><path d="M 792.75 226.5 A 37.75 37.75 0 0 1  830.5 188.75 L 792.75 226.5 A 37.75 37.75 0 0 0 830.5 188.75" fill="#fffefd"/><path d="M 830.5 188.75 A 37.75 37.75 0 0 1  868.25 226.5 L 830.5 188.75 A 37.75 37.75 0 0 0 868.25 226.5" fill="#c0c0c0"/><path d="M 792.75 264.25 A 37.75 37.75 0 0 1  830.5 226.5 L 792.75 264.25 A 37.75 37.75 0 0 0 830.5 226.5" fill="#8f8f8f"/><path d="M 830.5 264.25 A 37.75 37.75 0 0 1  868.25 226.5 L 830.5 264.25 A 37.75 37.75 0 0 0 868.25 226.5" fill="#fdf8e4"/><rect x="943.75" y="188.75" width="75.5" height="75.5" fill="#ffffff"/><path d="M 943.75 188.75 A 37.75 37.75 0 0 1  981.5 226.5 L 943.75 188.75 A 37.75 37.75 0 0 0 981.5 226.5" fill="#626262"/><path d="M 981.5 188.75 A 37.75 37.75 0 0 1  1019.25 226.5 L 981.5 188.75 A 37.75 37.75 0 0 0 1019.25 226.5" fill="#f9e79e"/><path d="M 981.5 264.25 A 37.75 37.75 0 0 1  1019.25 226.5 L 981.5 264.25 A 37.75 37.75 0 0 0 1019.25 226.5" fill="#f6da68"/><rect x="1094.75" y="188.75" width="75.5" height="75.5" fill="#ffffff"/><path d="M 1094.75 226.5 A 37.75 37.75 0 0 1  1132.5 188.75 L 1094.75 226.5 A 37.75 37.75 0 0 0 1132.5 188.75" fill="#232323"/><path d="M 1132.5 226.5 A 37.75 37.75 0 0 1  1170.25 188.75 L 1132.5 226.5 A 37.75 37.75 0 0 0 1170.25 188.75" fill="#3d3d3d"/><path d="M 1094.75 226.5 A 37.75 37.75 0 0 1  1132.5 264.25 L 1094.75 226.5 A 37.75 37.75 0 0 0 1132.5 264.25" fill="#fdf7df"/></g></svg>