<?xml version="1.0" standalone="no"?><svg xmlns:xlink="http://www.w3.org/1999/xlink" xmlns="http://www.w3.org/2000/svg" viewBox="0 0 1000 200.00000000000003" preserveAspectRatio="xMaxYMax slice"><g transform="scale(0.6622516556291391)"><rect x="0" y="0" width="1510" height="302" fill="#ffffff"/><rect x="641.75" y="37.75" width="75.5" height="75.5" fill="#ffffff"/><path d="M 641.75 37.75 A 37.75 37.75 0 0 1 679.5 75.5 L 641.75 75.5" fill="#fefbed"/><path d="M 679.5 75.5 A 37.75 37.75 0 0 1  717.25 37.75 L 717.25 75.5" fill="#f8e186"/><path d="M 679.5 75.5 A 37.75 37.75 0 0 0 717.25 113.25 L 717.25 75.5" fill="#fbefbd"/><rect x="792.75" y="37.75" width="75.5" height="75.5" fill="#ffffff"/><path d="M 830.5 75.5 A 37.75 37.75 0 0 1  868.25 37.75 L 868.25 75.5" fill="#e1e1e1"/><path d="M 830.5 75.5 A 37.75 37.75 0 0 0 868.25 113.25 L 868.25 75.5" fill="#c1c1c1"/><rect x="943.75" y="37.75" width="75.5" height="75.5" fill="#ffffff"/><path d="M 943.75 37.75 A 37.75 37.75 0 0 1 981.5 75.5 L 943.75 75.5" fill="#b8b8b8"/><path d="M 943.75 113.25 A 37.75 37.75 0 0 0 981.5 75.5 L 943.75 75.5" fill="#777777"/><path d="M 981.5 75.5 A 37.75 37.75 0 0 0 1019.25 113.25 L 1019.25 75.5" fill="#fbeebb"/><rect x="1094.75" y="37.75" width="75.5" height="75.5" fill="#ffffff"/><path d="M 1094.75 37.75 A 37.75 37.75 0 0 0 1132.5 75.5 L 1132.5 37.75" fill="#f5d657"/><path d="M 1094.75 113.25 A 37.75 37.75 0 0 1  1132.5 75.5 L 1132.5 113.25" fill="#d1d1d1"/><path d="M 1132.5 75.5 A 37.75 37.75 0 0 1 1170.25 113.25 L 1132.5 113.25" fill="#faebad"/><rect x="1245.75" y="37.75" width="75.5" height="75.5" fill="#ffffff"/><path d="M 1245.75 75.5 A 37.75 37.75 0 0 1  1283.5 37.75 L 1283.5 75.5" fill="#fbeebb"/><path d="M 1283.5 37.75 A 37.75 37.75 0 0 1 1321.25 75.5 L 1283.5 75.5" fill="#faeaab"/><path d="M 1245.75 75.5 A 37.75 37.75 0 0 0 1283.5 113.25 L 1283.5 75.5" fill="#fcf2cc"/><path d="M 1283.5 113.25 A 37.75 37.75 0 0 0 1321.25 75.5 L 1283.5 75.5" fill="#797979"/><rect x="37.75" y="188.75" width="75.5" height="75.5" fill="#ffffff"/><path d="M 37.75 188.75 A 37.75 37.75 0 0 1 75.5 226.5 L 37.75 226.5" fill="#d4d4d4"/><path d="M 75.5 226.5 A 37.75 37.75 0 0 1  113.25 188.75 L 113.25 226.5" fill="#f5d34d"/><path d="M 75.5 226.5 A 37.75 37.75 0 0 0 113.25 264.25 L 113.25 226.5" fill="#d4d4d4"/><rect x="188.75" y="188.75" width="75.5" height="75.5" fill="#ffffff"/><polygon points="188.75,226.5 226.5,226.5 188.75,264.25" fill="#f4d144"/><polygon points="226.5,226.5 264.25,226.5 264.25,264.25" fill="#fbf0c1"/><rect x="339.75" y="188.75" width="75.5" height="75.5" fill="#ffffff"/><path d="M 377.5 188.75 A 37.75 37.75 0 0 1 415.25 226.5 L 377.5 226.5" fill="#fffffe"/><path d="M 377.5 264.25 A 37.75 37.75 0 0 0 415.25 226.5 L 377.5 226.5" fill="#f5d555"/><rect x="490.75" y="188.75" width="75.5" height="75.5" fill="#ffffff"/><path d="M 528.5 188.75 A 37.75 37.75 0 0 0 566.25 226.5 L 566.25 188.75" fill="#f7de79"/><path d="M 490.75 226.5 A 37.75 37.75 0 0 1 528.5 264.25 L 490.75 264.25" fill="#f7de78"/><path d="M 528.5 264.25 A 37.75 37.75 0 0 1  566.25 226.5 L 566.25 264.25" fill="#ebebeb"/><rect x="792.75" y="188.75" width="75.5" height="75.5" fill="#ffffff"/><path d="M 792.75 188.75 A 37.75 37.75 0 0 0 830.5 226.5 L 830.5 188.75" fill="#fffefa"/><path d="M 830.5 226.5 A 37.75 37.75 0 0 0 868.25 188.75 L 830.5 188.75" fill="#eeeeee"/><rect x="943.75" y="188.75" width="75.5" height="75.5" fill="#ffffff"/><path d="M 943.75 226.5 A 37.75 37.75 0 0 0 981.5 188.75 L 943.75 188.75" fill="#545454"/><path d="M 981.5 264.25 A 37.75 37.75 0 0 1  1019.25 226.5 L 1019.25 264.25" fill="#202020"/><rect x="1094.75" y="188.75" width="75.5" height="75.5" fill="#ffffff"/><path d="M 1094.75 226.5 A 37.75 37.75 0 0 1  1132.5 188.75 L 1132.5 226.5" fill="#faeaa9"/><path d="M 1132.5 188.75 A 37.75 37.75 0 0 1 1170.25 226.5 L 1132.5 226.5" fill="#fae8a3"/><path d="M 1094.75 226.5 A 37.75 37.75 0 0 0 1132.5 264.25 L 1132.5 226.5" fill="#ebebeb"/><path d="M 1132.5 264.25 A 37.75 37.75 0 0 0 1170.25 226.5 L 1132.5 226.5" fill="#fbeeb9"/><rect x="1245.75" y="188.75" width="75.5" height="75.5" fill="#ffffff"/><path d="M 1245.75 226.5 A 37.75 37.75 0 0 0 1283.5 188.75 L 1245.75 188.75" fill="#fbeeba"/><path d="M 1283.5 188.75 A 37.75 37.75 0 0 0 1321.25 226.5 L 1321.25 188.75" fill="#d6d6d6"/><path d="M 1245.75 226.5 A 37.75 37.75 0 0 1 1283.5 264.25 L 1245.75 264.25" fill="#fbedb6"/><path d="M 1283.5 264.25 A 37.75 37.75 0 0 1  1321.25 226.5 L 1321.25 264.25" fill="#f7df7c"/></g></svg>